<?xml version="1.0" encoding="utf-8"?>
<!-- Generator: Adobe Illustrator 16.0.0, SVG Export Plug-In . SVG Version: 6.00 Build 0)  -->
<!DOCTYPE svg PUBLIC "-//W3C//DTD SVG 1.1//EN" "http://www.w3.org/Graphics/SVG/1.1/DTD/svg11.dtd">
<svg version="1.1" id="Capa_1" xmlns="http://www.w3.org/2000/svg" xmlns:xlink="http://www.w3.org/1999/xlink" x="0px" y="0px"
	 width="250px" height="138.23px" viewBox="142.25 78.653 250 138.23" enable-background="new 142.25 78.653 250 138.23"
	 xml:space="preserve">
<g>
	<g>
		<g>
			<g>
				<path fill="#68E1D3" d="M252.197,146.923c0.534,0.439,0.952,0.816,1.613,0.891c0.975,0.108,1.809-0.015,2.578-0.668
					c0.771-0.654,1.601-1.237,2.469-1.901c0.14,0.229,0.304,0.436,0.406,0.671c0.258,0.591,0.449,1.216,0.741,1.789
					c0.47,0.922,1.249,1.452,2.285,1.586c0.386,0.048,0.742-0.016,1.042-0.267c0.636-0.532,1.349-0.996,1.737-1.76
					c0.246-0.478,0.646-0.767,1.108-1.113c0.42,0.333,0.571,0.825,0.846,1.221c0.34,0.489,0.645,1.019,1.061,1.437
					c0.951,0.962,2.296,0.823,3.098-0.264c0.083-0.112,0.14-0.244,0.23-0.346c1.195-1.377,1.702-1.224,2.618-0.074
					c0.3,0.378,0.65,0.648,1.053,0.873c0.784,0.433,1.35,0.354,2.001-0.276c0.298-0.289,0.57-0.604,0.859-0.902
					c0.411-0.425,0.899-0.604,1.502-0.52c0.633,0.088,1.273,0.117,1.979,0.179c0.252,0.674,0.512,1.358,0.791,2.104
					c-0.174,0.201-0.312,0.458-0.528,0.592c-1.053,0.665-2.107,1.325-3.319,1.693c-0.524,0.159-1.013,0.44-1.521,0.653
					c-1.568,0.654-3.096,1.383-4.736,1.89c-1.532,0.473-3.145,0.732-4.586,1.485c-0.394,0.204-0.796,0.223-1.21,0.163
					c-1.254-0.181-2.476-0.063-3.695,0.284c-0.429,0.122-0.911,0.104-1.366,0.085c-1.013-0.039-2.024-0.055-3.038-0.063
					c-1.514-0.011-3.031-0.251-4.541-0.448c-0.773-0.102-1.534-0.316-2.301-0.48c-0.225-0.046-0.457-0.07-0.678-0.135
					c-0.708-0.204-0.993-0.613-0.908-1.327c0.039-0.321,0.1-0.644,0.201-0.948c0.623-1.884,1.258-3.761,1.896-5.641
					C251.927,147.265,252.033,147.163,252.197,146.923z"/>
				<path fill="#18B6B8" d="M275.881,147.774c-0.306-0.231-0.527-0.39-0.74-0.558c-0.358-0.284-0.703-0.586-1.072-0.859
					c-0.864-0.641-1.751-0.521-2.567,0.058c-0.482,0.341-0.888,0.797-1.297,1.23c-0.502,0.529-0.888,0.565-1.372-0.001
					c-0.448-0.523-0.838-1.1-1.252-1.653c-0.164-0.221-0.3-0.471-0.5-0.658c-0.47-0.446-0.981-0.498-1.501-0.111
					c-0.55,0.408-1.111,0.805-1.494,1.419c-0.234,0.376-0.644,0.64-0.952,0.976c-0.611,0.666-1.49,0.409-2.045-0.247
					c-0.175-0.208-0.282-0.475-0.418-0.716c-0.249-0.442-0.471-0.902-0.749-1.325c-0.597-0.909-1.165-1.037-2.098-0.485
					c-0.794,0.471-1.595,0.934-2.355,1.454c-0.968,0.659-2.025,0.28-2.761-0.681c-0.257-0.335-0.151-0.709-0.045-1.062
					c0.268-0.884,0.559-1.759,0.824-2.643c0.105-0.351,0.179-0.713,0.248-1.074c0.212-1.13,0.408-2.264,0.63-3.392
					c0.043-0.217,0.177-0.416,0.243-0.565c0.374-0.242,0.565,0.064,0.809,0.136c0.688,0.202,1.276,0.079,1.747-0.483
					c0.472-0.564,0.942-1.129,1.387-1.664c0.373-0.034,0.394,0.232,0.48,0.431c0.476,1.098,0.946,2.199,1.429,3.294
					c0.32,0.721,0.912,0.997,1.673,0.986c0.4-0.005,0.729-0.157,0.942-0.487c0.249-0.388,0.465-0.796,0.694-1.196
					c0.27-0.477,0.499-0.991,1.049-1.305c0.511,0.452,0.67,1.1,1.014,1.626c0.378,0.577,0.737,1.171,1.178,1.695
					c0.508,0.607,1.396,0.633,1.969,0.104c0.232-0.216,0.408-0.496,0.59-0.759c0.13-0.19,0.217-0.408,0.339-0.603
					c0.365-0.571,0.74-0.592,1.197-0.04c0.325,0.39,0.639,0.792,0.916,1.215c0.544,0.829,1.367,0.881,2.208,0.772
					c0.287-0.038,0.577-0.279,0.798-0.497c0.83-0.816,1.532-1.722,1.809-2.895c0.093-0.395,0.165-0.819,0.552-1.072
					c0.548,0.818,1.559,3.439,2.549,6.826c0.266,0.911,0.757,1.78,0.688,2.879c-0.393,0.017-0.752,0.08-1.101,0.038
					c-0.991-0.12-1.811,0.193-2.515,0.88C276.679,147.082,276.326,147.376,275.881,147.774z"/>
				<path fill="#68E1D3" d="M256.053,135.847c-0.952-0.522-0.997-0.572-0.852-1.284c0.092-0.451,0.202-0.904,0.362-1.334
					c0.773-2.072,1.567-4.136,2.378-6.269c0.275,0.082,0.57,0.199,0.875,0.258c0.604,0.118,0.952-0.033,1.263-0.583
					c0.248-0.439,0.425-0.918,0.657-1.369c0.117-0.225,0.283-0.425,0.487-0.723c0.31,0.487,0.189,0.91,0.185,1.296
					c-0.008,0.675,0.192,1.278,0.532,1.836c0.511,0.839,1.272,1.016,2.12,0.55c0.498-0.273,0.91-0.618,1.177-1.132
					c0.231-0.446,0.499-0.874,0.774-1.353c0.519,0.422,0.662,0.978,0.846,1.479c0.234,0.643,0.653,1.106,1.165,1.51
					c0.813,0.644,1.66,0.512,2.245-0.33c0.237-0.34,0.465-0.687,0.703-1.025c0.052-0.073,0.132-0.127,0.26-0.244
					c0.292,0.497,0.569,0.963,0.839,1.435c0.09,0.159,0.145,0.341,0.245,0.495c0.562,0.882,1.205,1.082,2.554,0.78
					c0.819,1.49,1.14,3.189,1.85,4.636c-0.492,1.146-0.9,2.223-1.417,3.244c-0.264,0.522-0.699,0.97-1.106,1.405
					c-0.381,0.408-0.817,0.412-1.218,0.033c-0.435-0.412-0.816-0.881-1.253-1.291c-0.228-0.214-0.503-0.431-0.794-0.511
					c-0.671-0.189-1.265-0.059-1.698,0.578c-0.306,0.447-0.523,0.988-1.14,1.273c-0.582-0.251-0.937-0.785-1.28-1.317
					c-0.349-0.542-0.655-1.113-0.997-1.661c-0.403-0.647-0.889-0.778-1.502-0.342c-0.369,0.262-0.682,0.617-0.973,0.969
					c-0.322,0.39-0.583,0.831-0.889,1.235c-0.342,0.449-0.716,0.456-0.981,0.001c-0.326-0.557-0.643-1.124-0.899-1.716
					c-0.309-0.716-0.551-1.46-0.82-2.195c-0.225-0.624-0.714-0.844-1.306-0.52c-0.358,0.196-0.688,0.464-0.988,0.746
					C256.987,134.848,256.557,135.325,256.053,135.847z"/>
				<path fill="#F85B68" d="M264.801,96.494c0.126-1.053,0.237-2.107,0.387-3.157c0.058-0.406,0.183-0.809,0.328-1.194
					c0.105-0.284,0.38-0.402,0.676-0.378c0.297,0.024,0.54,0.194,0.6,0.491c0.073,0.358,0.118,0.731,0.106,1.096
					c-0.029,1.015-0.088,2.029-0.148,3.043c-0.034,0.551-0.093,1.099-0.139,1.646c0.465,0.13,0.491-0.239,0.597-0.436
					c0.661-1.225,1.365-2.413,2.424-3.347c0.381-0.335,0.767-0.667,1.172-0.969c0.276-0.206,0.592-0.235,0.909-0.041
					c0.273,0.169,0.56,0.317,0.833,0.485c0.534,0.332,0.722,0.911,0.381,1.418c-0.41,0.606-0.89,1.167-1.355,1.736
					c-0.203,0.249-0.459,0.455-0.666,0.701c-0.795,0.951-1.578,1.911-2.408,2.92c0.798,0.126,1.432-0.056,1.999-0.505
					c0.888-0.703,1.94-1.058,3.012-1.341c0.388-0.103,0.824-0.11,1.225-0.06c0.5,0.061,0.851,0.546,0.694,1.013
					c-0.35,1.038-0.661,2.117-1.945,2.466c-0.979,0.264-1.917,0.667-2.888,0.957c-0.803,0.239-1.51,0.622-2.333,1.146
					c0.282,0.17,0.412,0.277,0.564,0.335c0.905,0.345,1.826,0.649,2.717,1.027c0.702,0.297,0.931,0.782,0.711,1.278
					c-0.193,0.441-0.649,0.636-1.315,0.412c-1.26-0.423-2.572-0.738-3.626-1.651c-0.366-0.319-0.871-0.478-1.238-0.67
					c-0.773,0.154-1.26,0.498-1.621,1.104c-0.54,0.91-1.167,1.768-1.739,2.66c-0.557,0.87-0.822,0.981-1.827,0.765
					c-0.737-0.158-1.392-0.418-1.808-1.102c-0.3-0.494-0.234-0.998,0.259-1.328c0.382-0.256,0.805-0.449,1.203-0.684
					c0.267-0.158,0.517-0.341,0.756-0.499c-0.09-0.384-0.358-0.34-0.567-0.361c-1.195-0.12-2.393-0.216-3.587-0.346
					c-0.409-0.045-0.821-0.127-1.21-0.256c-0.46-0.153-0.691-0.509-0.527-0.97c0.147-0.41,0.057-0.629-0.156-0.983
					c-0.474-0.792-0.023-1.494,0.901-1.468c0.739,0.023,1.473,0.13,2.209,0.196c0.687,0.062,1.376,0.119,2.04,0.177
					c0.244-0.265,0.071-0.44-0.062-0.622c-0.328-0.449-0.635-0.91-0.98-1.343c-0.739-0.93-1.068-2.036-1.374-3.151
					c-0.134-0.49,0.026-0.902,0.378-1.086c0.409-0.214,0.833-0.176,1.165,0.125c0.544,0.497,1.043,1.045,1.569,1.562
					c0.212,0.208,0.445,0.394,0.792,0.7c-0.011-0.737-0.189-1.269-0.397-1.759c-0.452-1.06-0.278-2.184-0.418-3.273
					c-0.042-0.326,0.138-0.63,0.482-0.769c0.342-0.136,0.666-0.045,0.874,0.229c0.359,0.475,0.721,0.961,0.988,1.488
					c0.432,0.853,0.793,1.742,1.183,2.615C264.667,96.522,264.733,96.509,264.801,96.494z"/>
				<path fill="#F8A613" d="M281.592,155.99c-0.856,1.676-1.14,1.776-2.932,1.054c-1.081,1.095-1.081,1.095-3.157,0.791
					c-0.477,0.742-1.146,1.134-2.104,0.655c-0.165,0.256-0.318,0.479-0.458,0.708c-0.501,0.822-0.919,1.016-1.833,0.796
					c-0.259-0.062-0.505-0.184-0.763-0.28c-0.218,0.216-0.382,0.461-0.611,0.591c-0.27,0.152-0.649,0.353-0.887,0.269
					c-0.659-0.235-1.216-0.108-1.828,0.144c-0.263,0.109-0.627-0.033-1.008-0.065c-0.393,0.333-0.786,0.722-1.401,0.721
					c-0.607,0-1.006-0.37-1.395-0.715c-1.552,1.27-1.944,1.292-3.256,0.393c-0.476,0.257-0.97,0.728-1.598,0.534
					c-0.521-0.161-1.003-0.451-1.537-0.698c-1.579,0.379-1.303,0.371-2.418-0.431c-0.518,0.024-1.159,0.289-1.677-0.095
					c-0.431-0.318-0.76-0.771-1.208-1.243c-0.191,0.112-0.455,0.262-0.714,0.425c-1.275,0.8-2.096,0.588-2.829-0.734
					c-0.067-0.12-0.106-0.253-0.193-0.464c-0.328-0.029-0.696-0.024-1.05-0.099c-0.797-0.164-1.167-0.771-0.904-1.551
					c0.111-0.331,0.352-0.641,0.6-0.898c0.31-0.318,0.711-0.395,1.149-0.22c0.464,0.183,0.916,0.367,1.447,0.396
					c0.343,0.02,0.667,0.403,1.137,0.715c0.574-0.106,1.225,0.057,1.916,0.438c0.821,0.458,1.748,0.799,2.734,0.812
					c0.589,0.007,1.067,0.248,1.352,0.69c1.445-0.201,1.445-0.201,2.473,0.724c0.159-0.15,0.327-0.296,0.482-0.455
					c0.61-0.628,1.113-0.745,1.838-0.371c0.281,0.145,0.521,0.371,0.851,0.612c0.229-0.165,0.51-0.317,0.728-0.532
					c0.365-0.361,0.779-0.472,1.265-0.379c0.18,0.035,0.355,0.101,0.539,0.125c0.845,0.106,1.644,0.062,2.276-0.639
					c0.639-0.713,1.44-0.908,2.381-0.751c0.542,0.088,1.106,0.031,1.657,0.068c0.666,0.044,1.27-0.024,1.784-0.537
					c0.216-0.215,0.555-0.309,0.846-0.441c0.248-0.113,0.548-0.152,0.751-0.313c0.759-0.599,1.643-0.842,2.571-0.906
					c0.679-0.049,1.244-0.232,1.72-0.743c0.342-0.372,0.755-0.64,1.318-0.679c0.28-0.018,0.583-0.256,0.805-0.467
					c0.335-0.325,0.639-0.648,1.148-0.704c0.212-0.024,0.436-0.152,0.608-0.29c0.49-0.39,0.995-0.642,1.655-0.51
					c0.199,0.039,0.432-0.1,0.65-0.151c0.222-0.051,0.444-0.132,0.667-0.141c0.449-0.017,0.805,0.18,1.028,0.58
					c0.222,0.399,0.178,0.799-0.049,1.183c-0.068,0.117-0.157,0.238-0.269,0.313c-0.434,0.292-0.492,0.733-0.562,1.203
					c-0.05,0.351-0.173,0.718-0.367,1.013c-0.245,0.372-0.698,0.536-1.105,0.409C283.102,155.615,282.402,155.793,281.592,155.99z"
					/>
				<path fill="#18B6B8" d="M269.08,127.868c-0.657-0.234-1.003-0.63-1.256-1.148c-0.321-0.663-0.653-1.323-1.026-1.958
					c-0.311-0.531-0.855-0.59-1.253-0.122c-0.417,0.489-0.75,1.048-1.136,1.563c-0.219,0.291-0.447,0.587-0.719,0.825
					c-0.333,0.291-0.752,0.221-0.927-0.164c-0.204-0.456-0.341-0.945-0.479-1.428c-0.125-0.44-0.185-0.9-0.325-1.336
					c-0.142-0.446-0.46-0.58-0.858-0.405c-0.517,0.226-0.951,0.556-1.246,1.052c-0.204,0.349-0.428,0.684-0.617,0.985
					c-0.351-0.016-0.373-0.234-0.379-0.389c-0.012-0.459-0.067-0.94,0.044-1.373c0.481-1.875,1.015-3.734,1.536-5.597
					c0.035-0.126,0.119-0.24,0.175-0.347c0.657-0.011,1.327,0.111,1.904-0.067c0.582-0.178,1.074-0.654,1.636-1.02
					c0.358,0.176,0.353,0.594,0.524,0.899c0.156,0.281,0.311,0.567,0.445,0.859c0.242,0.526,0.677,0.725,1.22,0.753
					c0.392,0.02,0.732-0.104,0.976-0.417c0.223-0.285,0.424-0.586,0.698-0.97c0.257,0.273,0.539,0.457,0.653,0.715
					c0.433,0.979,1.178,1.36,2.208,1.3c0.085-0.006,0.174,0.042,0.354,0.089c0.154,0.364,0.353,0.773,0.507,1.199
					c0.754,2.08,1.497,4.164,2.237,6.248c0.063,0.171,0.146,0.359,0.128,0.53c-0.016,0.155-0.125,0.375-0.252,0.423
					c-0.116,0.046-0.38-0.046-0.454-0.16c-0.348-0.538-0.645-1.111-0.98-1.66c-0.166-0.272-0.352-0.543-0.574-0.773
					c-0.412-0.431-0.888-0.452-1.349-0.054c-0.201,0.174-0.351,0.415-0.505,0.638c-0.184,0.265-0.34,0.548-0.518,0.815
					C269.372,127.522,269.247,127.658,269.08,127.868z"/>
				<path fill="#68E1D3" d="M270.333,118.809c-0.168-0.112-0.336-0.181-0.436-0.305c-0.293-0.356-0.534-0.755-0.839-1.099
					c-0.783-0.881-1.29-0.874-2.016,0.012c-0.229,0.278-0.432,0.577-0.691,0.925c-0.523-0.351-0.738-0.851-0.95-1.347
					c-0.181-0.424-0.313-0.871-0.525-1.277c-0.248-0.473-0.781-0.526-1.159-0.144c-0.355,0.359-0.665,0.767-1.045,1.099
					c-0.459,0.398-0.979,0.447-1.561,0.068c1-3.678,2.504-7.116,4.329-10.557c0.757,1.077,1.411,2.07,1.877,3.167
					c1.159,2.72,2.151,5.503,3.002,8.334C270.45,118.121,270.448,118.121,270.333,118.809z"/>
			</g>
			<g>
				<path fill="#F85B68" d="M240.187,162.38c-0.616,1.229-1.157,2.508-1.877,3.669c-0.327,0.525-0.964,0.89-1.534,1.208
					c-1.498,0.833-3.023,1.628-4.562,2.39c-1.892,0.937-3.828,1.729-6.048,1.785c-1.987,0.05-3.971,0.193-5.941,0.397
					c-1.536,0.155-3.066-0.034-4.6-0.144c-0.67-0.051-1.368-0.148-2.059-0.709c0.05-2.566,0.553-5.1,0.811-7.548
					c0.264-0.377,0.481-0.141,0.682-0.109c0.956,0.148,1.409-0.125,1.61-0.981c0.181-0.762-0.131-1.201-0.938-1.294
					c-0.169-0.019-0.342,0.021-0.511,0.002c-0.106-0.011-0.208-0.079-0.32-0.125c0.156-1.572,0.31-3.146,0.47-4.72
					c0.209-2.081,0.479-4.147,0.515-6.263c0.037-1.984,0.443-3.932,0.642-5.904c0.292-2.872,0.523-5.753,0.815-8.625
					c0.161-1.575,0.366-3.145,0.609-4.705c0.094-0.607,0.321-1.19,0.531-1.765c0.217-0.592,0.79-0.69,1.196-0.208
					c0.985,1.169,1.92,2.384,2.538,3.778c0.383,0.869,0.888,1.645,1.469,2.386c1.639,2.09,3.06,4.308,4.329,6.629
					c2.613,4.781,5.372,9.486,8.3,14.097c0.849,1.336,1.591,2.735,2.375,4.108C239.153,160.541,239.61,161.355,240.187,162.38z
					 M230.809,168.747c-0.189-0.346-0.433-0.874-0.749-1.354c-0.233-0.357-0.796-0.394-1.061-0.13
					c-0.758,0.748-0.552,2.093,0.408,2.627c0.319,0.18,0.656,0.253,0.968,0.046C230.719,169.704,230.904,169.384,230.809,168.747z
					 M220.785,170.049c-0.231-0.391-0.402-0.762-0.649-1.077c-0.504-0.646-1.325-0.547-1.65,0.163
					c-0.229,0.503-0.036,1.17,0.443,1.543c0.411,0.318,1.082,0.384,1.43,0.079C220.547,170.591,220.633,170.312,220.785,170.049z
					 M217.951,143.696c0.078,0.728,0.572,1.164,1.25,1.104c0.615-0.055,1.024-0.533,0.945-1.109
					c-0.099-0.743-0.735-1.298-1.394-1.219C218.194,142.541,217.878,143.024,217.951,143.696z M219.488,157.153
					c0.051,0.169,0.086,0.337,0.153,0.493c0.261,0.605,0.958,0.718,1.333,0.213c0.127-0.171,0.205-0.384,0.333-0.557
					c0.218-0.29,0.265-0.593,0.046-0.921c-0.289-0.431-0.762-0.645-1.163-0.533c-0.405,0.113-0.646,0.389-0.705,0.809
					C219.464,156.818,219.487,156.99,219.488,157.153z M222.421,140.216c-0.125,0.088-0.42,0.187-0.542,0.396
					c-0.332,0.564,0.005,1.411,0.637,1.742c0.376,0.196,0.813,0.122,1.064-0.187c0.312-0.384,0.303-0.82,0.094-1.271
					C223.472,140.461,223.044,140.209,222.421,140.216z M233.106,152.651c-0.129-0.727-0.677-1.156-1.319-1.036
					c-0.463,0.087-0.737,0.485-0.673,0.974c0.094,0.717,0.641,1.22,1.252,1.154C232.87,153.688,233.204,153.195,233.106,152.651z
					 M222.87,134.863c-0.129-0.2-0.336-0.618-0.635-0.954c-0.311-0.347-0.97-0.258-1.2,0.095c-0.264,0.407-0.235,1.05,0.071,1.451
					c0.28,0.364,0.662,0.472,1.077,0.444C222.569,135.875,222.917,135.469,222.87,134.863z M226.226,147.684
					c-0.489,0.06-0.833,0.582-0.73,1.111c0.114,0.582,0.642,0.938,1.284,0.867c0.479-0.053,0.828-0.448,0.784-0.892
					C227.503,148.169,226.819,147.612,226.226,147.684z M221.363,150.879c-0.083-0.157-0.13-0.341-0.245-0.441
					c-0.419-0.357-0.918-0.516-1.421-0.39c-0.231,0.057-0.48,0.267-0.587,0.48c-0.171,0.343,0.06,0.656,0.351,0.869
					c0.538,0.395,1.211,0.363,1.694-0.076C221.263,151.226,221.291,151.04,221.363,150.879z M230.641,158.946
					c0.288-0.377,0.574-0.71,0.806-1.078c0.222-0.349,0.091-0.835-0.237-1.074c-0.393-0.286-0.968-0.245-1.239,0.078
					c-0.276,0.332-0.239,0.729-0.181,1.132C229.847,158.415,229.942,158.805,230.641,158.946z M237.932,163.256
					c-0.029-0.506-0.539-0.945-1.063-0.914c-0.477,0.028-0.831,0.389-0.837,0.85c-0.007,0.526,0.443,0.992,0.977,1.013
					C237.517,164.224,237.961,163.765,237.932,163.256z M231.888,163.607c-0.06-0.428-0.509-0.784-0.997-0.784
					c-0.477,0-0.844,0.373-0.825,0.837c0.022,0.525,0.539,0.945,1.062,0.865C231.597,164.455,231.944,164.035,231.888,163.607z
					 M225.31,162.204c-0.513,0.003-0.972,0.472-0.94,0.964c0.022,0.376,0.413,0.75,0.812,0.774c0.556,0.036,1.026-0.354,1.026-0.852
					C226.207,162.649,225.753,162.2,225.31,162.204z M228.432,143.851c-0.099-0.48-0.53-0.833-0.968-0.792
					c-0.468,0.044-0.847,0.466-0.788,0.875c0.073,0.511,0.577,0.909,1.096,0.865C228.227,144.763,228.53,144.327,228.432,143.851z
					 M234.442,160.482c0.464-0.033,0.797-0.454,0.721-0.915c-0.065-0.393-0.44-0.722-0.833-0.729
					c-0.534-0.012-0.987,0.447-0.916,0.925C233.475,160.17,233.968,160.516,234.442,160.482z M218.814,163.354
					c-0.071,0.203-0.263,0.479-0.24,0.753c0.033,0.424,0.552,0.726,1.025,0.698c0.384-0.024,0.725-0.471,0.614-0.808
					C220.068,163.558,219.482,163.247,218.814,163.354z M226.154,154.46c-0.026-0.48-0.378-0.812-0.696-0.713
					c-0.212,0.067-0.438,0.287-0.513,0.497c-0.104,0.292,0.275,0.711,0.586,0.638C225.79,154.818,225.994,154.575,226.154,154.46z"
					/>
				<path fill="#F8CF13" d="M213.375,172.561c1.436,0.26,2.611,0.506,3.793,0.676c0.673,0.095,1.366,0.128,2.038,0.091
					c2.546-0.143,5.084-0.365,7.633-0.482c2.203-0.104,4.154-0.863,6.04-1.819c1.333-0.674,2.601-1.479,3.978-2.057
					c1.911-0.801,3.136-2.186,3.904-4.058c0.104-0.253,0.244-0.493,0.375-0.734c0.023-0.046,0.082-0.071,0.143-0.118
					c0.54,0.011,1.098-0.075,1.622,0.301c0.802,0.572,1.046,1.188,0.818,2.09c-0.216,0.852-0.693,1.553-1.376,2.022
					c-0.971,0.667-1.665,1.583-2.474,2.399c-1.119,1.129-2.372,2.115-3.909,2.736c-2.368,0.957-4.693,2.007-7.219,2.579
					c-0.382,0.087-0.76,0.209-1.149,0.232c-3.282,0.188-6.563,0.385-9.851,0.511c-0.954,0.036-1.933-0.109-2.894-0.255
					c-0.967-0.147-2.667-0.758-2.681-1.756C212.157,174.196,212.632,173.127,213.375,172.561z"/>
				<path fill="#F8CF13" d="M214.218,126.867c-0.271-0.359-0.456-0.576-0.609-0.815c-0.344-0.543-0.693-1.087-1.003-1.648
					c-0.33-0.597-0.455-1.21,0.023-1.748c0.461-0.518,1.256-0.591,2.039-0.177c0.398,0.21,0.769,0.478,1.32,0.827
					c-0.035-0.783-0.108-1.392-0.075-1.987c0.042-0.773,0.835-1.117,1.507-0.688c0.143,0.091,0.245,0.249,0.371,0.37
					c0.117,0.115,0.241,0.22,0.452,0.413c0.255-0.542,0.463-1.037,0.716-1.504c0.195-0.361,0.521-0.585,0.97-0.5
					c0.437,0.082,0.734,0.365,0.842,0.794c0.153,0.613,0.269,1.234,0.42,1.951c0.262,0.079,0.535,0.13,0.784,0.24
					c0.901,0.402,1.238,1.107,0.884,1.94c-0.304,0.715-0.66,1.406-1.031,2.083c-0.4,0.73-1.16,1.012-2.204,0.679
					c-0.738-0.236-1.136-0.158-1.482,0.549c-0.325,0.665-1.052,1.035-1.745,1.17c-1.206,0.235-2.465,0.277-3.7,0.396
					c-0.055,0.006-0.113-0.012-0.171-0.021c-0.494-0.076-0.871-0.427-0.954-0.886c-0.081-0.447,0.153-0.955,0.601-1.073
					C212.762,127.075,213.38,127.01,214.218,126.867z"/>
			</g>
			<g>
				<path fill="#F8A613" d="M318.496,173.067c-0.035,3.3-0.473,6.317-0.778,9.375c-0.65,0.338-1.327,0.197-1.92-0.02
					c-1.861-0.685-3.7-1.431-5.537-2.176c-1.623-0.658-2.96-1.708-4.123-2.956c-1.373-1.476-2.733-2.961-4.046-4.482
					c-1.101-1.28-2.082-2.637-2.824-4.143c-0.878-1.772-1.83-3.515-2.698-5.294c-0.334-0.685-0.491-1.441-0.79-2.142
					c-0.319-0.75-0.127-1.295,0.438-1.851c0.584-0.569,1.049-1.25,1.568-1.879c0.318-0.383,0.64-0.762,1.092-1.297
					c0.269,0.58,0.51,0.998,0.661,1.441c0.653,1.934,1.592,3.744,2.667,5.507c1.323,2.173,3.028,4.063,5.075,5.598
					c2.199,1.654,4.679,2.929,7.338,3.808c0.491,0.162,1.039,0.164,1.562,0.23C316.893,172.876,317.607,172.959,318.496,173.067z"/>
				<path fill="#F85B68" d="M319.837,161.406c0.035,1.78-0.826,8.338-1.251,9.598c-1.644,0.077-3.256-0.187-4.75-0.938
					c-1.583-0.797-3.185-1.597-4.653-2.571c-1.815-1.201-3.267-2.799-4.512-4.532c-1.924-2.676-3.229-5.494-4.198-8.823
					c0.336-0.84,1.145-1.408,1.701-2.155c0.554-0.74,1.043-1.537,1.854-2.262c0.552,0.619,0.645,1.309,0.847,1.931
					c0.971,2.994,2.976,5.325,5.333,7.428c0.99,0.883,2.187,1.431,3.491,1.751c0.515,0.126,1.037,0.225,1.541,0.376
					c1.224,0.371,2.45,0.494,3.699,0.231C319.189,161.386,319.46,161.418,319.837,161.406z"/>
				<path fill="#F8A613" d="M305.49,147.689c0.995-1.643,4.122-5.226,5.774-6.642c0.199,0.479,0.428,0.905,0.556,1.354
					c0.687,2.436,2.003,4.527,3.857,6.337c0.187,0.181,0.381,0.359,0.541,0.561c1.094,1.379,2.548,2.204,4.271,2.648
					c0.18,0.046,0.343,0.168,0.489,0.243c0.134,1.219-0.351,4.794-0.989,7.285c-0.563,0.23-1.225,0.213-1.865,0.154
					c-3.333-0.299-6.207-1.326-8.468-3.988C307.614,153.235,306.632,150.475,305.49,147.689z"/>
				<path fill="#F85B68" d="M294.124,162.404c4.319,9.604,3.673,9.111,12.754,18.539c-0.102,0.039-0.228,0.132-0.287,0.102
					c-1.244-0.633-2.565-1.032-3.925-1.329c-0.319-0.072-0.65-0.17-0.932-0.33c-1.765-1.007-3.564-1.962-5.312-3.012
					c-1.834-1.098-3.324-2.459-4.792-3.943c-1.002-1.015-1.672-2.098-2.149-3.353c-0.217-0.569-0.222-1.066,0.163-1.585
					c0.858-1.158,1.603-2.391,2.766-3.333C293.044,163.645,293.556,162.993,294.124,162.404z"/>
				<path fill="#F8CF13" d="M325.253,120.016c-0.904,0.111-1.796,0.305-2.697,0.452c-2.181,0.359-2.495,1.439-2.583,2.968
					c-0.073,1.225-0.002,2.48,1.308,3.383c0.332,0.229,0.574,0.573,0.796,0.929c0.492,0.169,1.015,0.322,1.379,0.695
					c0.028,0.031,0.047,0.076,0.049,0.121c0.111,0.074,0.229,0.141,0.336,0.215c0.243,0.036,0.484,0.067,0.724,0.082
					c1.606,0.093,2.931-0.301,3.9-1.638c0.618-0.85,0.89-1.764,1.154-2.729C330.205,122.347,328.327,119.637,325.253,120.016z"/>
				<path fill="#F8A613" d="M323.318,131.287c0.02-0.582-0.025-1.182-0.069-1.865c-0.119-0.13-0.209-0.274-0.269-0.429
					c-0.048-0.039-0.102-0.075-0.15-0.116c-0.151,0.001-0.302-0.023-0.445-0.078c-1.098,1.277-2.129,2.502-3.2,3.686
					c-0.585,0.646-0.677,1.354-0.329,2.087c0.574,1.212,1.166,2.422,1.876,3.563c0.383,0.615,0.978,1.17,1.939,1.216
					c0.276-0.963,0.346-1.884,0.383-2.82C323.124,134.78,323.258,133.036,323.318,131.287z"/>
				<path fill="#F85B68" d="M321.434,149.968c-0.98,0.085-1.835-0.237-2.433-0.785c-1.681-1.541-3.369-3.105-4.385-5.156
					c-0.795-1.604-1.301-3.299-1.81-4.932c1.15-1.673,2.508-3.036,3.896-3.927c0.47,0.097,0.493,0.522,0.663,0.833
					c0.185,0.338,0.363,0.677,0.518,1.028c0.876,2.001,2.175,3.628,4.473,4.407c0.033,0.49,0.146,0.929,0.075,1.333
					C322.017,145.146,322.394,147.651,321.434,149.968z"/>
			</g>
		</g>
		<g>
			<path fill="#F8A613" d="M211.227,110.835c-0.454,1.685-0.945,3.348-1.343,5.031c-0.348,1.474-0.589,2.974-0.879,4.462
				c-0.095,0.479-0.178,0.96-0.309,1.43c-0.034,0.126-0.222,0.292-0.341,0.294c-0.19,0.003-0.392-0.097-0.569-0.191
				c-0.083-0.044-0.149-0.168-0.172-0.27c-0.292-1.247-1.236-2.153-1.727-3.295c-0.064-0.148-0.15-0.291-0.244-0.422
				c-1.134-1.586-2.271-3.168-3.411-4.748c-0.022-0.031-0.096-0.025-0.209-0.051c-0.698,2.976-1.4,5.951-2.089,8.929
				c-0.073,0.321-0.077,0.683-0.464,0.772c-0.434,0.099-0.738-0.17-0.947-0.499c-0.584-0.915-1.155-1.837-1.705-2.773
				c-0.467-0.795-0.979-1.58-1.328-2.428c-0.751-1.829-1.956-3.383-2.919-5.082c-0.282-0.497-0.63-0.806-1.237-0.934
				c-0.671-0.143-1.301-0.484-1.941-0.758c-0.066-0.028-0.079-0.185-0.122-0.295c0.378-0.313,0.815-0.227,1.208-0.098
				c1.27,0.417,2.558,0.417,3.87,0.313c0.81-0.065,1.635-0.083,2.44,0.002c1.039,0.107,2.062,0.059,3.091-0.028
				c3.09-0.262,6.179-0.508,9.268-0.778c0.592-0.051,1.178-0.181,1.766-0.273c0.266-0.042,0.555-0.164,0.796-0.103
				c0.953,0.24,1.837-0.075,2.731-0.275c1.539-0.344,3.076-0.698,4.596-1.111c1.308-0.355,2.592-0.802,3.889-1.2
				c0.883-0.271,1.777-0.507,2.652-0.802c1.44-0.484,2.907-0.92,4.297-1.525c2.737-1.194,5.42-2.489,8.036-3.958
				c2.614-1.467,5.067-3.158,7.562-4.794c0.676-0.442,1.242-1.05,1.86-1.58c0.221-0.189,0.468-0.286,0.735-0.108
				c0.254,0.17,0.397,0.646,0.216,0.875c-0.331,0.422-0.687,0.837-1.089,1.189c-0.651,0.569-1.348,1.085-2.063,1.654
				c0.145,1.767,0.268,3.495,0.443,5.218c0.037,0.364,0.238,0.721,0.408,1.059c0.833,1.645,0.986,3.431,1.081,5.227
				c0.008,0.147-0.093,0.298-0.135,0.428c-0.458,0.247-0.883,0.175-1.271-0.052c-0.607-0.359-1.221-0.718-1.778-1.144
				c-1.424-1.09-2.824-2.208-4.216-3.338c-0.334-0.272-0.58-0.647-0.899-0.94c-0.229-0.208-0.511-0.359-0.899-0.626
				c-0.073,0.309-0.167,0.496-0.15,0.672c0.06,0.594,0.106,1.197,0.254,1.771c0.391,1.525,0.837,3.036,1.245,4.559
				c0.099,0.364,0.159,0.744,0.191,1.121c0.04,0.479,0.033,0.965,0.049,1.553c-0.352-0.033-0.65,0.023-0.837-0.095
				c-0.456-0.289-0.897-0.621-1.271-1.007c-0.792-0.819-1.575-1.624-2.514-2.296c-0.695-0.499-1.216-1.233-1.831-1.846
				c-0.652-0.649-1.319-1.284-1.993-1.911c-0.1-0.094-0.274-0.108-0.452-0.173c-0.294,2.672-0.583,5.288-0.864,7.905
				c-0.047,0.431-0.046,0.866-0.085,1.296c-0.035,0.376-0.064,0.759-0.152,1.125c-0.148,0.625-0.587,0.763-1.072,0.348
				c-1.283-1.096-2.458-2.295-3.51-3.615c-1.048-1.311-2.078-2.641-3.501-3.605c-0.364,0.148-0.322,0.508-0.367,0.799
				c-0.298,1.938-0.854,3.81-1.391,5.689c-0.192,0.675-0.246,1.388-0.442,2.062c-0.147,0.513-0.391,1.005-0.645,1.478
				c-0.153,0.288-0.631,0.294-0.847,0.036c-0.454-0.541-0.901-1.087-1.322-1.653c-1.062-1.437-2.113-2.88-3.159-4.329
				c-0.287-0.396-0.557-0.805-0.792-1.233C212.133,111.396,211.765,111.037,211.227,110.835z M208.143,119.678
				c0.484-2.464,0.865-4.861,1.522-7.203c0.196-0.702,0.422-1.454,0.141-2.205c-1.562-0.081-5.942,0.306-7.086,0.624
				c-0.215,0.783,0.279,1.371,0.628,1.949c0.724,1.199,1.561,2.33,2.332,3.504c0.444,0.676,0.858,1.373,1.269,2.069
				C207.218,118.876,207.397,119.405,208.143,119.678z M238.315,101.807c2.062,1.718,4.006,3.34,5.952,4.959
				c0.292,0.242,0.577,0.501,0.899,0.694c0.2,0.119,0.467,0.127,0.729,0.192c0.22-1.107,0.007-2.073-0.381-2.961
				c-0.513-1.173-0.702-2.383-0.776-3.635c-0.041-0.705-0.1-1.409-0.179-2.109c-0.027-0.239,0.059-0.557-0.363-0.709
				C242.3,99.391,240.366,100.563,238.315,101.807z M222.271,107.938c0.234,0.363,0.312,0.584,0.466,0.71
				c1.284,1.038,2.166,2.421,3.202,3.673c0.689,0.834,1.433,1.625,2.176,2.412c0.146,0.156,0.407,0.201,0.692,0.332
				c0.08-1.598,0.195-3.053,0.212-4.509c0.016-1.494,0.573-2.951,0.355-4.631C227.09,107.006,224.617,106.907,222.271,107.938z"/>
			<path fill="#F85B68" d="M330.742,107.467c-0.751,1.358-1.541,2.694-2.236,4.077c-0.646,1.285-1.186,2.626-1.791,3.931
				c-0.204,0.433-0.439,0.859-0.724,1.239c-0.601,0.796-1.601,0.627-1.981-0.312c-0.067-0.166-0.116-0.341-0.16-0.514
				c-0.82-3.256-1.637-6.513-2.453-9.766c-0.615-0.284-0.895,0.153-1.176,0.535c-1.456,1.978-2.902,3.962-4.354,5.945
				c-0.141,0.193-0.255,0.41-0.416,0.583c-0.334,0.359-0.932,0.482-1.32,0.283c-0.366-0.188-0.428-0.542-0.463-0.912
				c-0.266-2.684-0.688-5.352-0.678-8.058c0.001-0.156-0.102-0.312-0.201-0.597c-0.255,0.129-0.497,0.187-0.644,0.337
				c-0.754,0.769-1.511,1.54-2.21,2.357c-0.62,0.725-1.08,1.575-1.936,2.105c-0.336,0.206-0.512,0.655-0.801,0.954
				c-0.331,0.339-0.669,0.707-1.074,0.93c-1.086,0.596-1.597,0.314-1.592-0.896c0.007-2.764,0.067-5.526,0.109-8.29
				c0.002-0.222,0-0.445,0-0.824c-0.785,0.251-1.153,0.813-1.592,1.252c-0.804,0.8-1.595,1.616-2.358,2.457
				c-0.315,0.347-0.52,0.793-0.819,1.159c-0.182,0.222-0.425,0.42-0.681,0.55c-0.376,0.193-0.898-0.115-0.963-0.531
				c-0.026-0.175-0.048-0.36-0.026-0.535c0.163-1.25,0.336-2.496,0.507-3.744c0.023-0.18,0.077-0.356,0.082-0.535
				c0.064-2.222,0.484-4.402,0.864-6.661c-0.717-0.722-1.427-1.439-2.325-2.343c0.471,0.063,0.751,0.031,0.947,0.144
				c0.306,0.178,0.562,0.445,0.824,0.691c3.367,3.15,7.18,5.641,11.384,7.5c2.412,1.067,4.898,1.976,7.382,2.876
				c1.121,0.406,2.314,0.615,3.477,0.908c0.172,0.044,0.371,0.015,0.529,0.084c2.186,0.983,4.554,1.018,6.865,1.34
				c0.475,0.065,0.96,0.035,1.438,0.066c0.715,0.045,1.43,0.119,2.144,0.157c0.896,0.047,1.819,0.218,2.68,0.062
				c0.96-0.175,1.904-0.197,2.863-0.232c0.833-0.031,1.66-0.113,2.49-0.213c1.47-0.178,2.974-0.051,4.478-0.051
				c-0.026,0.657-0.489,0.896-1.053,0.988c-0.827,0.134-1.662,0.228-2.544,0.346c-0.986,1.312-1.631,2.814-2.104,4.337
				c-0.343,1.103-0.932,2.07-1.306,3.142c-0.197,0.562-0.505,1.084-0.756,1.627c-0.342,0.743-1.011,0.952-1.559,0.414
				c-0.815-0.798-1.564-1.646-2.024-2.729c-0.772-1.818-1.603-3.612-2.417-5.41C331.026,107.602,330.883,107.56,330.742,107.467z
				 M325.342,115.729c0.826-1.813,1.449-3.365,2.228-4.836c0.771-1.452,1.61-2.862,2.199-4.558
				c-1.312-0.201-2.491-0.363-3.664-0.563c-1.225-0.208-2.441-0.449-3.663-0.676c-0.164,1.206-0.141,1.285,0.229,2.475
				c0.495,1.598,0.965,3.203,1.447,4.805C324.426,113.397,324.688,114.436,325.342,115.729z M306.244,98.864
				c-0.667,2.722-0.79,5.098-0.529,9.847c0.007,0.144,0.144,0.282,0.275,0.52c0.358-0.418,0.605-0.84,0.967-1.106
				c0.984-0.728,1.695-1.671,2.36-2.674c0.227-0.345,0.56-0.622,0.858-0.916c0.639-0.632,1.302-1.241,1.926-1.887
				c0.22-0.226,0.358-0.53,0.541-0.807C310.47,100.83,308.42,99.876,306.244,98.864z"/>
		</g>
		<g>
			<path fill="#4C4D45" d="M283.686,162.43c0.303-0.035,0.542-0.004,0.716-0.095c0.602-0.308,1.248-0.155,1.869-0.241
				c1.412,0.423,2.664,1.057,3.21,2.559c0.072,0.199,0.092,0.438,0.065,0.649c-0.082,0.64-0.291,1.24-0.764,1.704
				c-0.382,0.377-0.782,0.737-1.192,1.085c-0.336,0.284-0.699,0.536-1.057,0.808c0.259,1.096,0.396,2.16,0.803,3.173
				c0.414,1.028,0.757,2.086,1.084,3.146c0.149,0.479,0.195,0.991,0.266,1.491c0.027,0.196-0.042,0.383-0.256,0.457
				c-0.203,0.068-0.396,0.003-0.508-0.159c-0.141-0.204-0.254-0.436-0.336-0.671c-0.516-1.466-1.022-2.935-1.519-4.406
				c-0.119-0.358-0.188-0.735-0.258-1.107c-0.069-0.368-0.11-0.744-0.162-1.115c-0.517,0.071-0.653,0.136-0.641,0.404
				c0.07,1.588-0.31,3.158-0.171,4.746c0.024,0.286,0.053,0.572,0.041,0.855c-0.018,0.501-0.244,0.783-0.618,0.834
				c-0.425,0.055-0.825-0.164-0.941-0.622c-0.125-0.487-0.19-0.996-0.218-1.5c-0.033-0.569,0.015-1.141,0.012-1.711
				c-0.007-1.204-0.046-2.409-0.029-3.613c0.021-1.33,0.091-2.66,0.141-3.99c0.014-0.382,0.039-0.761,0.041-1.141
				C283.268,163.417,283.386,162.902,283.686,162.43z M285.103,163.099c-0.044,0.274-0.088,0.427-0.09,0.581
				c-0.002,1.298,0,2.594,0.008,3.89c0,0.189,0.027,0.378,0.044,0.567c0.003,0.029,0.017,0.066,0.039,0.085
				c0.021,0.017,0.059,0.014,0.143,0.033c0.805-0.42,1.58-0.963,2.288-1.594c0.299-0.264,0.54-0.617,0.745-0.966
				c0.224-0.381,0.194-0.789-0.083-1.159C287.441,163.524,286.424,163.087,285.103,163.099z"/>
			<path fill="#4C4D45" d="M271.238,170.19c-0.042,0.48-0.066,0.919-0.123,1.357c-0.151,1.166-0.249,2.333-0.188,3.512
				c0.019,0.378-0.024,0.762-0.065,1.141c-0.021,0.186-0.076,0.375-0.153,0.546c-0.255,0.574-0.926,0.656-1.29,0.171
				c-0.238-0.317-0.351-0.652-0.301-1.064c0.063-0.533,0.058-1.074,0.079-1.613c0.022-0.602,0.049-1.205,0.06-1.809
				c0.013-0.696,0.037-1.396,0.012-2.092c-0.041-1.15,0.04-2.284,0.257-3.413c0.139-0.718,0.248-1.432,0.226-2.173
				c-0.015-0.532,0.109-1.072,0.208-1.601c0.074-0.398,0.305-0.704,0.734-0.778c0.149-0.024,0.354-0.046,0.454,0.032
				c0.301,0.235,0.638,0.267,0.988,0.277c1.36,0.04,2.327,0.77,3.082,1.813c0.294,0.405,0.513,0.88,0.687,1.352
				c0.23,0.622,0.042,1.254-0.09,1.874c-0.019,0.087-0.079,0.177-0.144,0.242c-0.827,0.794-1.654,1.587-2.83,1.848
				C272.345,169.919,271.853,170.044,271.238,170.19z M271.288,168.668c1.282-0.112,2.288-0.551,3.13-1.388
				c0.396-0.391,0.535-0.925,0.338-1.459c-0.334-0.909-0.977-1.548-1.819-1.974c-0.44-0.222-0.932-0.354-1.435-0.246
				c-0.053,0.857-0.115,1.673-0.149,2.49C271.316,166.911,271.31,167.731,271.288,168.668z"/>
			<path fill="#4C4D45" d="M279.322,163.527c0.382,0.59,0.509,1.217,0.649,1.828c0.192,0.832,0.315,1.681,0.467,2.522
				c0.318,1.747,0.636,3.494,0.951,5.241c0.028,0.156,0.058,0.315,0.052,0.471c-0.021,0.674,0.105,1.323,0.291,1.97
				c0.068,0.239,0.101,0.498,0.084,0.744c-0.02,0.32-0.271,0.544-0.55,0.558c-0.25,0.013-0.487-0.128-0.576-0.409
				c-0.235-0.756-0.512-1.503-0.507-2.313c0.004-0.701-0.114-1.385-0.341-2.095c-0.619-0.097-1.238-0.194-1.922-0.303
				c-0.058,0.181-0.15,0.376-0.184,0.583c-0.215,1.317-0.416,2.635-0.627,3.951c-0.045,0.279-0.093,0.565-0.19,0.831
				c-0.136,0.376-0.479,0.552-0.828,0.478c-0.315-0.065-0.551-0.316-0.565-0.676c-0.013-0.379-0.003-0.765,0.051-1.139
				c0.314-2.199,0.688-4.39,1.288-6.532c0.059-0.215,0.114-0.432,0.142-0.651c0.178-1.393,0.587-2.727,1.007-4.06
				c0.252-0.801,0.247-0.804,1.053-0.978C279.126,163.534,279.19,163.537,279.322,163.527z M278.857,166.559
				c-0.229,0.328-0.239,0.673-0.294,1c-0.062,0.375-0.097,0.753-0.157,1.127c-0.054,0.344-0.141,0.681-0.185,1.026
				c-0.045,0.359-0.25,0.713-0.081,1.115c0.509,0.016,0.989,0.199,1.485,0.084C279.611,169.727,279.189,167.294,278.857,166.559z"/>
			<path fill="#4C4D45" d="M293.688,164.447c-0.061,0.101-0.116,0.151-0.12,0.206c-0.127,1.961-0.282,3.92-0.071,5.887
				c0.057,0.533,0.041,1.078,0.01,1.614c-0.069,1.148,0.078,2.28,0.231,3.41c0.03,0.22,0.063,0.438,0.08,0.661
				c0.012,0.124,0.01,0.254-0.013,0.376c-0.047,0.25-0.298,0.469-0.532,0.472c-0.243,0.001-0.441-0.108-0.531-0.331
				c-0.093-0.232-0.172-0.48-0.206-0.727c-0.261-1.82-0.539-3.636-0.436-5.488c0.072-1.266,0.054-2.537,0.093-3.803
				c0.021-0.697,0.077-1.393,0.114-2.09c0.006-0.124-0.001-0.248-0.004-0.387c-0.479-0.227-0.998-0.23-1.481-0.368
				c-0.273-0.076-0.552-0.146-0.811-0.261c-0.25-0.109-0.384-0.331-0.366-0.614c0.017-0.246,0.296-0.485,0.603-0.518
				c0.125-0.014,0.255-0.013,0.379,0.004c1.604,0.22,3.204,0.452,4.807,0.665c0.583,0.078,0.888,0.396,1.028,0.958
				c0.103,0.417-0.14,0.731-0.504,0.735c-0.406,0.002-0.816-0.087-1.217-0.165c-0.215-0.043-0.413-0.16-0.626-0.211
				C293.972,164.435,293.813,164.451,293.688,164.447z"/>
			<path fill="#4C4D45" d="M302.266,163.182c-0.039-0.26-0.312-0.362-0.527-0.23c-0.578,0.353-0.796,1.275-1.03,1.854
				c-0.306,0.754-0.531,1.506-0.688,2.277c-0.07-0.087-0.13-0.163-0.171-0.235c-0.4-0.724-0.792-1.45-1.195-2.17
				c-0.124-0.22-0.251-0.445-0.418-0.631c-0.223-0.247-0.504-0.374-0.817-0.232c-0.167,0.274-0.178,0.525-0.09,0.772
				c0.561,1.582,1.025,3.213,2.252,4.522c-0.088,0.421-0.158,0.856-0.274,1.279c-0.176,0.643-0.438,1.267-0.568,1.917
				c-0.22,1.09-0.518,2.154-0.835,3.217c-0.095,0.314-0.097,0.626,0.023,0.933c0.101,0.26,0.449,0.334,0.627,0.125
				c0.099-0.12,0.178-0.262,0.247-0.402c0.467-0.947,0.649-1.982,0.908-2.994c0.104-0.399,0.187-0.803,0.293-1.201
				c0.148-0.552,0.359-1.09,0.455-1.651c0.167-0.974,0.43-1.918,0.717-2.86c0.241-0.789,0.482-1.579,0.741-2.363
				c0.104-0.316,0.173-0.637,0.184-0.962C302.223,163.813,302.31,163.48,302.266,163.182z"/>
			<g>
				<path fill="#4C4D45" d="M238.505,169.569c-0.012,0.648-0.03,1.172-0.028,1.696c0.002,0.527,0.019,1.057,0.041,1.583
					c0.021,0.52-0.215,1.046,0.038,1.572c0.449,0.167,0.899,0.185,1.367,0.112c0.598-0.092,1.186-0.042,1.749,0.204
					c0.302,0.134,0.464,0.358,0.502,0.683c0.029,0.254-0.126,0.484-0.373,0.484c-0.296,0.002-0.595-0.022-0.89-0.056
					c-1.061-0.113-2.114-0.122-3.149,0.194c-0.436,0.131-0.845,0.092-1.225-0.188c-0.226-0.167-0.378-0.373-0.411-0.65
					c-0.042-0.36-0.09-0.723-0.097-1.085c-0.017-0.757,0.026-1.518-0.017-2.274c-0.078-1.328-0.006-2.647,0.168-3.963
					c0.065-0.491,0.081-0.99,0.098-1.485c0.048-1.291,0.073-2.581,0.134-3.87c0.021-0.428,0.091-0.864,0.515-1.166
					c0.536,0.033,1.092-0.007,1.631,0.237c0.224,0.1,0.526,0.1,0.775,0.053c0.606-0.113,1.187,0.031,1.775,0.113
					c0.158,0.022,0.314,0.104,0.455,0.186c0.246,0.143,0.381,0.365,0.367,0.656c-0.013,0.278-0.236,0.563-0.551,0.63
					c-0.253,0.054-0.527,0.068-0.785,0.042c-0.671-0.068-1.312,0.072-1.995,0.207c-0.37,1.619-0.048,3.234-0.182,4.852
					c0.492,0.271,0.995,0.223,1.478,0.269c0.329,0.032,0.662,0.026,0.99,0.054c0.129,0.01,0.289,0.033,0.371,0.115
					c0.104,0.102,0.213,0.278,0.194,0.405c-0.019,0.12-0.212,0.321-0.305,0.309C240.283,169.375,239.454,169.762,238.505,169.569z"
					/>
				<path fill="#4C4D45" d="M231.021,161.562c0.05,0.262,0.128,0.477,0.127,0.693c-0.004,0.364-0.078,0.725-0.089,1.091
					c-0.024,0.761-0.025,1.521-0.038,2.282c-0.011,0.696-0.028,1.392-0.037,2.088c-0.011,0.795-0.01,1.588-0.021,2.384
					c-0.009,0.728-0.029,1.456-0.043,2.185c-0.006,0.33-0.028,0.662-0.005,0.991c0.044,0.63,0.083,1.252-0.032,1.884
					c-0.094,0.519,0.102,0.764,0.631,0.767c0.593,0.002,1.187-0.071,1.779-0.121c0.396-0.031,0.79-0.095,1.187-0.111
					c0.154-0.007,0.341,0.039,0.462,0.128c0.173,0.129,0.438,0.233,0.398,0.519c-0.037,0.271-0.289,0.337-0.497,0.432
					c-0.089,0.04-0.186,0.074-0.283,0.086c-0.687,0.099-1.376,0.175-2.061,0.284c-1.033,0.167-2.047-0.063-3.068-0.129
					c-0.318-0.02-0.55-0.216-0.705-0.491c-0.215-0.386-0.327-0.787-0.266-1.237c0.213-1.577,0.055-3.181,0.337-4.754
					c0.075-0.419,0.021-0.858,0.034-1.289c0.02-0.762,0.043-1.523,0.067-2.284c0.008-0.232,0.053-0.465,0.032-0.695
					c-0.095-1.105,0.104-2.18,0.315-3.254C229.469,161.88,229.714,161.667,231.021,161.562z"/>
				<path fill="#4C4D45" d="M245.365,163.889c-0.531,0.044-0.959,0.105-1.387,0.111c-0.542,0.007-0.809-0.277-0.797-0.798
					c0.002-0.097,0.019-0.207,0.071-0.283c0.309-0.452,0.69-0.856,1.274-0.83c0.643,0.031,1.25-0.083,1.871-0.204
					c0.32-0.061,0.661-0.055,0.987-0.027c0.463,0.038,0.924,0.116,1.38,0.197c0.463,0.081,0.714,0.32,0.745,0.674
					c0.031,0.369-0.241,0.654-0.755,0.765c-0.26,0.054-0.526,0.067-0.787,0.113c-0.257,0.048-0.511,0.117-0.822,0.187
					c-0.038,0.313-0.078,0.604-0.104,0.893c-0.107,1.161-0.02,2.32,0.026,3.48c0.009,0.199,0.034,0.401,0.014,0.597
					c-0.168,1.628,0.011,3.246,0.114,4.868c0.047,0.726,0.066,1.456,0.069,2.186c0.002,0.262-0.055,0.529-0.127,0.781
					c-0.074,0.256-0.383,0.438-0.616,0.413c-0.241-0.028-0.49-0.26-0.52-0.533c-0.044-0.426-0.117-0.86-0.077-1.283
					c0.084-0.875-0.197-1.708-0.225-2.571c-0.067-2.056-0.251-4.105-0.155-6.168C245.581,165.637,245.519,164.81,245.365,163.889z"
					/>
				<path fill="#4C4D45" d="M258.467,164.894c-0.482-0.724-0.482-0.722-1.355-0.831c-0.195-0.024-0.388-0.06-0.599-0.093
					c-0.437,0.273-0.522,0.683-0.372,1.123c0.221,0.656,0.459,1.314,0.764,1.934c0.44,0.893,0.862,1.787,1.167,2.739
					c0.219,0.692,0.512,1.362,0.754,2.048c0.277,0.777,0.171,2.271-0.194,3c-0.446,0.897-1.627,1.559-2.622,1.463
					c-0.396-0.039-0.792-0.144-1.185-0.126c-0.734,0.03-1.437-1.032-1.428-1.672c0.005-0.43,0.392-0.761,0.804-0.648
					c0.21,0.059,0.402,0.209,0.591,0.336c0.355,0.238,0.694,0.504,1.059,0.726c0.313,0.19,0.675,0.147,0.939-0.069
					c0.468-0.379,0.867-0.831,0.848-1.498c-0.007-0.263,0.015-0.55-0.078-0.787c-0.428-1.106-0.654-2.273-1.301-3.314
					c-0.586-0.948-1.036-2.002-1.402-3.06c-0.333-0.962-0.245-1.959,0.334-2.859c0.248-0.384,0.615-0.593,1.029-0.741
					c0.062-0.022,0.135-0.061,0.191-0.046c0.817,0.211,1.72,0.258,2.236,1.078c0.1,0.157,0.155,0.37,0.156,0.557
					C258.808,164.408,258.819,164.692,258.467,164.894z"/>
				<path fill="#4C4D45" d="M253.967,163.144c-0.096,1.048-0.813,1.945-1.705,2.206c-0.158,0.047-0.346,0.104-0.438-0.077
					c-0.047-0.095-0.015-0.255,0.032-0.364c0.137-0.3,0.312-0.583,0.449-0.883c0.177-0.39,0.331-0.79,0.498-1.184
					c0.051-0.123,0.098-0.247,0.164-0.359c0.105-0.182,0.262-0.296,0.483-0.287c0.207,0.008,0.427,0.204,0.471,0.443
					C253.959,162.832,253.958,163.033,253.967,163.144z"/>
			</g>
			<g>
				<path fill="#4C4D45" d="M303.56,173.77c-0.107-0.165-0.266-0.305-0.293-0.467c-0.056-0.34-0.083-0.697-0.05-1.04
					c0.204-2.023,0.423-4.042,0.79-6.044c0.139-0.759,0.438-1.459,0.756-2.149c0.118-0.253,0.312-0.478,0.496-0.694
					c0.155-0.182,0.374-0.254,0.602-0.155c0.219,0.097,0.334,0.289,0.353,0.528c0.007,0.094,0.003,0.191-0.017,0.282
					c-0.041,0.187-0.07,0.382-0.15,0.55c-0.506,1.048-0.651,2.18-0.843,3.309c-0.273,1.595-0.61,3.18-0.92,4.769
					C304.196,173.104,304.041,173.507,303.56,173.77z"/>
				<path fill="#4C4D45" d="M302.57,175.91c0.023-0.077,0.048-0.201,0.099-0.314c0.114-0.25,0.323-0.381,0.594-0.376
					c0.235,0.004,0.422,0.133,0.512,0.349c0.07,0.171,0.119,0.357,0.139,0.54c0.047,0.452-0.205,0.765-0.605,0.779
					c-0.458,0.018-0.777-0.294-0.763-0.746C302.548,176.079,302.558,176.016,302.57,175.91z"/>
			</g>
		</g>
		<g>
			<g>
				<path fill="#F8CF13" d="M183.891,129.451c-7.211-3.615-16.437-0.756-24.191-2.592c-1.336-0.316-1.784,1.53-0.554,2.014
					c3.518,1.378,7.046,1.618,10.797,1.659c4.529,0.051,9.042,0.252,13.565,0.332C184.24,130.877,184.575,129.793,183.891,129.451z"
					/>
				<path fill="#F8CF13" d="M180.708,139.529c-4.365,0.522-8.862,0.882-13.121,2.036c-0.987,0.267-0.769,1.744,0.238,1.759
					c4.506,0.069,9.098-0.759,13.215-2.567C181.628,140.5,181.347,139.452,180.708,139.529z"/>
				<path fill="#F8CF13" d="M163.515,141.811c-0.574-0.2-1.278-0.007-1.863,0.087c-0.728,0.116-1.493,0.104-2.229,0.145
					c-1.218,0.068-1.219,1.826,0,1.89c1.396,0.077,3.923,0.312,4.538-1.335C164.089,142.256,163.82,141.917,163.515,141.811z"/>
				<path fill="#F8CF13" d="M181.828,146.034c-6.025,0.601-10.946,3.849-16.497,5.996c-1.123,0.436-6.304,1.367-5.434,3.459
					c0.235,0.565,1.113,0.707,1.291,0c-0.18,0.711,1.321-0.026,2.222-0.248c1.708-0.42,3.371-1.063,5-1.714
					c4.59-1.834,8.95-4.199,13.651-5.771C182.951,147.456,182.859,145.93,181.828,146.034z"/>
				<path fill="#F8CF13" d="M179.972,160.276c-1.722,0.286-3.296,0.976-4.701,2.007c-1.555,1.143-3.332,2.257-4.65,3.667
					c-0.584,0.625,0.013,1.449,0.777,1.332c3.46-0.527,6.182-4.075,9.083-5.8C181.161,161.077,180.681,160.158,179.972,160.276z"/>
				<path fill="#F8CF13" d="M184.201,172.503c-3.425,1.513-6.385,4.242-9.19,6.675c-1.922,1.666-3.482,3.041-4.75,5.109
					c-0.266,0.139-0.473,0.391-0.462,0.709c0.012,0.376,0.023,0.722,0.344,0.972c0.267,0.207,0.636,0.409,0.988,0.262
					c0.593-0.247,0.949-0.512,1.343-1.043c1.01-1.36,2.46-2.336,3.761-3.411c3.037-2.515,6.47-4.896,8.993-7.943
					C185.859,173.072,185.088,172.113,184.201,172.503z"/>
				<path fill="#F8CF13" d="M191.077,182.271c-2.098,2.95-3.478,6.099-4.713,9.486c-1.112,3.047-2.643,6.739-2.425,10.045
					c0.097,1.476,1.928,1.617,2.457,0.33c2.538-6.17,4.051-12.864,6.446-19.119C193.258,181.922,191.667,181.443,191.077,182.271z"
					/>
				<path fill="#F8CF13" d="M177.001,117.004c-3.995-1.039-7.136-4.049-11.417-4.216c-1.388-0.054-1.374,2.073,0,2.147
					c3.993,0.214,7.175,3.222,11.203,3.656C177.708,118.689,177.863,117.228,177.001,117.004z"/>
				<path fill="#F8CF13" d="M180.773,107.634c-2.679-2.15-5.978-3.485-8.924-5.239c-2.822-1.68-5.015-3.73-8.2-4.767
					c-1.15-0.375-1.862,1.118-1.121,1.926c0.688,0.746,1.603,1.196,2.485,1.667c1.603,0.858,2.976,2.029,4.465,3.069
					c3.021,2.108,6.769,4.209,10.434,4.826C180.681,109.245,181.543,108.252,180.773,107.634z"/>
			</g>
			<g>
				<path fill="#F8CF13" d="M350.609,128.019c7.211-3.615,16.436-0.756,24.191-2.592c1.335-0.316,1.783,1.53,0.554,2.014
					c-3.518,1.378-7.045,1.618-10.797,1.66c-4.528,0.05-9.043,0.251-13.564,0.332C350.262,129.444,349.926,128.361,350.609,128.019z
					"/>
				<path fill="#F8CF13" d="M353.794,138.097c4.364,0.522,8.86,0.881,13.12,2.035c0.987,0.267,0.769,1.744-0.238,1.759
					c-4.507,0.069-9.098-0.758-13.214-2.567C352.873,139.068,353.153,138.02,353.794,138.097z"/>
				<path fill="#F8CF13" d="M370.986,140.379c0.573-0.2,1.277-0.008,1.862,0.087c0.729,0.116,1.493,0.104,2.229,0.145
					c1.219,0.068,1.219,1.825,0,1.89c-1.395,0.078-3.923,0.313-4.538-1.335C370.412,140.824,370.68,140.485,370.986,140.379z"/>
				<path fill="#F8CF13" d="M352.673,144.601c6.025,0.602,10.946,3.85,16.496,5.996c1.123,0.435,6.305,1.367,5.435,3.46
					c-0.235,0.563-1.112,0.706-1.291,0c0.18,0.709-1.32-0.027-2.222-0.25c-1.709-0.419-3.371-1.063-5.001-1.713
					c-4.589-1.834-8.95-4.201-13.649-5.773C351.55,146.024,351.642,144.497,352.673,144.601z"/>
				<path fill="#F8CF13" d="M354.528,158.844c1.722,0.285,3.296,0.976,4.7,2.007c1.555,1.142,3.332,2.256,4.65,3.667
					c0.583,0.625-0.013,1.449-0.776,1.333c-3.461-0.528-6.183-4.076-9.083-5.801C353.339,159.644,353.818,158.725,354.528,158.844z"
					/>
				<path fill="#F8CF13" d="M350.299,171.072c3.426,1.511,6.385,4.242,9.19,6.673c1.922,1.666,3.481,3.043,4.749,5.11
					c0.268,0.138,0.475,0.391,0.465,0.709c-0.013,0.376-0.024,0.722-0.346,0.972c-0.267,0.207-0.636,0.409-0.987,0.262
					c-0.594-0.247-0.949-0.512-1.343-1.043c-1.01-1.36-2.46-2.337-3.759-3.412c-3.038-2.515-6.473-4.895-8.994-7.941
					C348.642,171.639,349.414,170.68,350.299,171.072z"/>
				<path fill="#F8CF13" d="M343.424,180.838c2.097,2.95,3.478,6.1,4.714,9.486c1.111,3.047,2.641,6.739,2.426,10.043
					c-0.1,1.478-1.93,1.619-2.456,0.333c-2.539-6.171-4.053-12.864-6.449-19.12C341.241,180.49,342.835,180.01,343.424,180.838z"/>
				<path fill="#F8CF13" d="M357.5,115.572c3.994-1.039,7.135-4.048,11.416-4.216c1.389-0.054,1.375,2.073,0,2.147
					c-3.992,0.213-7.175,3.222-11.202,3.656C356.793,117.257,356.638,115.795,357.5,115.572z"/>
				<path fill="#F8CF13" d="M353.726,106.202c2.68-2.15,5.979-3.486,8.926-5.239c2.823-1.679,5.016-3.73,8.198-4.767
					c1.151-0.375,1.862,1.118,1.122,1.926c-0.687,0.746-1.604,1.197-2.484,1.667c-1.604,0.858-2.976,2.029-4.465,3.069
					c-3.021,2.108-6.77,4.209-10.435,4.826C353.819,107.812,352.958,106.819,353.726,106.202z"/>
			</g>
		</g>
	</g>
	<g>
		<path fill="#4C4D45" d="M208.766,188.033c-0.33-1.267-1.221-1.9-2.672-1.9c-2.746,0.092-4.376,2.369-4.89,6.829
			c-0.015,0.146-0.02,0.291-0.02,0.437v0.04c0,3.286,1.194,4.977,3.583,5.066c2.574-0.171,3.92-1.741,4.039-4.71
			c0.132-0.41,0.482-0.655,1.05-0.732h0.099c0.488,0.077,0.785,0.336,0.891,0.771c-0.172,4.196-2.191,6.409-6.059,6.633
			c-3.787-0.079-5.681-2.468-5.681-7.166v-0.021c0-0.156,0.006-0.321,0.02-0.494c0.66-5.688,2.983-8.572,6.969-8.651h0.336
			c1.174,0,1.953,0.191,2.336,0.574c0.277-0.356,0.6-0.536,0.97-0.536c0.409,0,0.752,0.188,1.029,0.556v4.276
			c-0.317,0.29-0.661,0.436-1.029,0.436c-0.344,0-0.667-0.139-0.97-0.416V188.033L208.766,188.033z"/>
		<path fill="#4C4D45" d="M219.972,198.209c0.276-0.105,0.574-0.29,0.89-0.556c0.766,0.252,1.162,0.813,1.188,1.686
			c-0.727,0.593-1.531,0.916-2.416,0.969c-0.66-0.104-1.056-0.311-1.188-0.613c-0.212,0.172-0.614,0.35-1.207,0.534
			c-0.212,0.053-0.411,0.105-0.594,0.158l-0.258,0.039c-0.225,0.014-0.449,0.02-0.673,0.02c-2.165-0.078-3.32-0.976-3.465-2.691
			c-0.014-0.092-0.021-0.192-0.021-0.298c0-1.49,0.903-2.237,2.713-2.237h0.376c0.251,0.014,0.468,0.021,0.653,0.021
			c1.201,0,2.047-0.244,2.534-0.732c0.132-0.779,0.198-1.503,0.198-2.178c0-0.647-0.157-1.19-0.474-1.634
			c-0.317-0.442-0.798-0.662-1.446-0.662c-0.238,0-0.488,0.032-0.752,0.099c-1.003,0.29-1.504,1.261-1.504,2.909v0.259
			c-0.357,0.354-0.72,0.533-1.09,0.533c-0.356,0-0.707-0.171-1.049-0.515c0.145-3.128,1.299-4.883,3.465-5.267
			c0.409-0.051,0.798-0.077,1.168-0.077c1.148,0.064,2.049,0.489,2.703,1.275c0.653,0.785,0.98,1.87,0.98,3.257
			c0,0.845-0.106,1.788-0.317,2.831C220.124,196.645,219.985,197.603,219.972,198.209z M218.072,196.863
			c-0.555,0.172-1.023,0.258-1.406,0.258h-0.198c-0.211,0-0.442-0.008-0.693-0.021c-0.185-0.014-0.357-0.021-0.515-0.021
			c-0.673,0-1.01,0.133-1.01,0.396c0,0.04,0.008,0.086,0.021,0.14c0.132,0.619,0.607,0.936,1.425,0.949
			c0.159,0,0.323-0.007,0.495-0.02C217.287,198.296,217.913,197.735,218.072,196.863z"/>
		<path fill="#4C4D45" d="M225.139,193.161c-0.08,0.355-0.119,0.851-0.119,1.484c0,0.356,0.021,0.726,0.06,1.109
			c0.251,1.874,1.234,2.811,2.95,2.811c1.822-0.211,2.758-1.485,2.812-3.821c0.356-0.316,0.692-0.475,1.009-0.475
			c0.264,0,0.595,0.146,0.99,0.436c-0.092,3.656-1.729,5.569-4.909,5.742c-2.376,0-3.921-1.063-4.633-3.188
			c-0.226-0.793-0.337-1.597-0.337-2.415c0-1.268,0.284-2.527,0.852-3.781c1.068-2.008,2.699-3.01,4.89-3.01
			c1.994,0.158,3.228,1.003,3.703,2.534c0.093,0.329,0.139,0.627,0.139,0.89c0,1.123-0.732,1.684-2.197,1.684H225.139
			L225.139,193.161z M225.971,191.261h4.295c0.185-0.026,0.277-0.061,0.277-0.1c0-0.106-0.052-0.25-0.158-0.436
			c-0.277-0.528-0.891-0.791-1.842-0.791h-0.198C227.264,189.974,226.473,190.417,225.971,191.261z"/>
		<path fill="#4C4D45" d="M239.85,190.746c0.791,0.157,1.497,0.475,2.118,0.95c1.003,0.857,1.504,2.038,1.504,3.543
			c-0.131,3.42-1.663,5.168-4.593,5.246c-3.088,0-4.725-2.223-4.91-6.671h0.336c0.119-0.106,0.35-0.157,0.693-0.157
			c0.331,0,0.692,0.125,1.089,0.375c0.211,2.996,1.141,4.494,2.792,4.494c1.649-0.119,2.514-1.221,2.593-3.307
			c0-0.87-0.297-1.524-0.89-1.96c-0.489-0.408-1.255-0.614-2.297-0.614c-0.212,0-0.403,0.008-0.575,0.021
			c-0.211,0.013-0.402,0.021-0.574,0.021c-1.28,0-2.086-0.357-2.416-1.07c-0.171-0.368-0.257-0.724-0.257-1.068
			c0-0.448,0.119-0.872,0.356-1.267c0.423-0.845,1.195-1.286,2.317-1.327c0.633,0,1.002,0.066,1.109,0.198
			c0.329-0.29,0.653-0.435,0.97-0.435c0.369,0,0.712,0.151,1.029,0.454v2.277C240.114,190.58,239.981,190.68,239.85,190.746z
			 M238.602,190.646c-0.158-0.117-0.31-0.275-0.455-0.474c-0.277-0.236-0.581-0.356-0.911-0.356c-0.039,0-0.098,0.012-0.178,0.039
			c-0.33,0.054-0.501,0.205-0.515,0.456c0.026,0.264,0.284,0.396,0.773,0.396c0.224,0,0.487-0.014,0.791-0.039
			C238.278,190.653,238.444,190.646,238.602,190.646z"/>
		<path fill="#4C4D45" d="M252.857,198.209c0.277-0.105,0.573-0.29,0.89-0.556c0.765,0.252,1.161,0.813,1.188,1.686
			c-0.726,0.593-1.531,0.916-2.415,0.969c-0.661-0.104-1.057-0.311-1.188-0.613c-0.212,0.172-0.614,0.35-1.209,0.534
			c-0.211,0.053-0.409,0.105-0.594,0.158l-0.257,0.039c-0.224,0.014-0.448,0.02-0.672,0.02c-2.166-0.078-3.32-0.976-3.466-2.691
			c-0.012-0.092-0.02-0.192-0.02-0.298c0-1.49,0.904-2.237,2.713-2.237h0.376c0.25,0.014,0.469,0.021,0.653,0.021
			c1.201,0,2.045-0.244,2.534-0.732c0.131-0.779,0.199-1.503,0.199-2.178c0-0.647-0.159-1.19-0.476-1.634
			c-0.316-0.442-0.798-0.662-1.444-0.662c-0.238,0-0.49,0.032-0.753,0.099c-1.002,0.29-1.505,1.261-1.505,2.909v0.259
			c-0.355,0.354-0.719,0.533-1.089,0.533c-0.355,0-0.706-0.171-1.049-0.515c0.144-3.128,1.3-4.883,3.464-5.267
			c0.41-0.051,0.797-0.077,1.169-0.077c1.147,0.064,2.049,0.489,2.702,1.275c0.653,0.785,0.979,1.87,0.979,3.257
			c0,0.845-0.105,1.788-0.316,2.831C253.008,196.645,252.87,197.603,252.857,198.209z M250.956,196.863
			c-0.554,0.172-1.022,0.258-1.405,0.258h-0.198c-0.211,0-0.442-0.008-0.694-0.021c-0.185-0.014-0.356-0.021-0.514-0.021
			c-0.673,0-1.01,0.133-1.01,0.396c0,0.04,0.007,0.086,0.02,0.14c0.131,0.619,0.607,0.936,1.425,0.949
			c0.158,0,0.323-0.007,0.495-0.02C250.17,198.296,250.797,197.735,250.956,196.863z"/>
		<path fill="#4C4D45" d="M259.211,188.132c0.568-0.145,1.042-0.217,1.425-0.217c0.171,0,0.363,0.006,0.575,0.02
			c0.672,0.066,1.257,0.326,1.752,0.782c0.496,0.455,0.769,0.842,0.821,1.158v0.08c0,0.275-0.125,0.501-0.376,0.672
			c-0.212,0.158-0.429,0.258-0.653,0.297h-0.08c-0.275,0-0.488-0.126-0.633-0.376c-0.264-0.356-0.58-0.581-0.95-0.673
			c-0.132-0.053-0.251-0.08-0.356-0.08c-0.238,0-0.476,0.066-0.713,0.198c-0.33,0.146-0.587,0.619-0.772,1.426v6.89h3.188
			c0.29,0.33,0.435,0.652,0.435,0.971c0,0.356-0.159,0.679-0.475,0.97h-6.118c-0.291-0.291-0.435-0.613-0.435-0.97
			c0-0.318,0.138-0.641,0.414-0.971h1.01v-8.216h-1.029c-0.265-0.332-0.396-0.66-0.396-0.991c0-0.303,0.131-0.626,0.396-0.97
			H259.211z"/>
		<path fill="#4C4D45" d="M280.732,188.033c-0.33-1.267-1.221-1.9-2.674-1.9c-2.746,0.092-4.375,2.369-4.89,6.829
			c-0.013,0.146-0.019,0.291-0.019,0.437v0.04c0,3.286,1.194,4.977,3.583,5.066c2.573-0.171,3.92-1.741,4.039-4.71
			c0.132-0.41,0.482-0.655,1.049-0.732h0.1c0.489,0.077,0.785,0.336,0.89,0.771c-0.171,4.196-2.191,6.409-6.058,6.633
			c-3.788-0.079-5.682-2.468-5.682-7.166v-0.021c0-0.156,0.006-0.321,0.02-0.494c0.661-5.688,2.983-8.572,6.968-8.651h0.337
			c1.173,0,1.954,0.191,2.336,0.574c0.277-0.356,0.601-0.536,0.97-0.536c0.409,0,0.753,0.188,1.03,0.556v4.276
			c-0.318,0.29-0.661,0.436-1.03,0.436c-0.344,0-0.667-0.139-0.97-0.416L280.732,188.033L280.732,188.033z"/>
		<path fill="#4C4D45" d="M288.552,198.309h2.296c0.29,0.33,0.436,0.647,0.436,0.95c0,0.355-0.159,0.687-0.475,0.99h-6.534
			c-0.291-0.317-0.435-0.646-0.435-0.99c0-0.303,0.137-0.62,0.415-0.95h2.316v-8.236h-1.425c-0.264-0.329-0.396-0.66-0.396-0.991
			c0-0.302,0.14-0.618,0.417-0.949h3.385L288.552,198.309L288.552,198.309z M288.711,184.767c0,0.383-0.132,0.711-0.396,0.98
			s-0.594,0.405-0.991,0.405c-0.395,0-0.728-0.136-1-0.405c-0.271-0.27-0.404-0.598-0.404-0.98s0.134-0.708,0.404-0.979
			c0.271-0.271,0.604-0.407,1-0.407c0.397,0,0.727,0.136,0.991,0.407S288.711,184.384,288.711,184.767z"/>
		<path fill="#4C4D45" d="M295.68,188.054c0.209-0.251,1.036-0.376,2.474-0.376c2.917,0,4.508,2.006,4.771,6.018
			c-0.026,2.389-0.495,4.046-1.406,4.97c-0.91,0.938-1.934,1.405-3.068,1.405c-0.014,0-0.021-0.005-0.021-0.021
			c-1.161,0-2.078-0.137-2.75-0.414v2.315h2.851c0.264,0.33,0.396,0.646,0.396,0.95c0,0.383-0.158,0.713-0.476,0.99h-5.82
			c-0.291-0.291-0.435-0.62-0.435-0.99c0-0.317,0.145-0.633,0.435-0.95h1.05v-12.234h-1.088c-0.264-0.331-0.396-0.654-0.396-0.971
			c0-0.315,0.132-0.647,0.396-0.99h3.089V188.054L295.68,188.054z M295.68,191.716v4.275c0.369,1.439,1.181,2.158,2.435,2.158
			c1.756,0,2.666-1.479,2.732-4.434c-0.119-2.813-1.029-4.218-2.732-4.218C296.861,189.498,296.049,190.237,295.68,191.716z"/>
		<path fill="#4C4D45" d="M311.023,191.458c-0.079-0.884-0.468-1.332-1.167-1.347c-0.805,0.079-1.453,0.45-1.94,1.109v7.167h1.346
			c0.317,0.264,0.475,0.581,0.475,0.951c0,0.355-0.152,0.679-0.455,0.969h-4.258c-0.316-0.29-0.475-0.613-0.475-0.969
			c0-0.33,0.152-0.646,0.456-0.951h0.911v-11.938h-0.93c-0.305-0.329-0.457-0.667-0.457-1.009c0-0.345,0.153-0.667,0.457-0.971h2.93
			v4.02c0.264-0.252,0.905-0.376,1.919-0.376h0.179c1.979,0,3.002,1.081,3.068,3.246v6.87c0,0.079,0.032,0.119,0.099,0.119h0.099
			c0.132,0,0.384-0.14,0.753-0.414c0.778,0.144,1.168,0.592,1.168,1.345v0.276c-0.515,0.408-1.148,0.681-1.901,0.812h-0.396
			c-0.581,0-1.03-0.131-1.347-0.395c-0.356-0.357-0.535-0.858-0.535-1.506L311.023,191.458L311.023,191.458z"/>
		<path fill="#4C4D45" d="M318.508,193.161c-0.08,0.355-0.119,0.851-0.119,1.484c0,0.356,0.021,0.726,0.059,1.109
			c0.251,1.874,1.234,2.811,2.949,2.811c1.823-0.211,2.759-1.485,2.813-3.821c0.357-0.316,0.692-0.475,1.009-0.475
			c0.265,0,0.595,0.146,0.991,0.436c-0.093,3.656-1.729,5.569-4.91,5.742c-2.376,0-3.92-1.063-4.634-3.188
			c-0.224-0.793-0.335-1.597-0.335-2.415c0-1.268,0.282-2.527,0.852-3.781c1.068-2.008,2.698-3.01,4.89-3.01
			c1.991,0.158,3.228,1.003,3.702,2.534c0.093,0.329,0.139,0.627,0.139,0.89c0,1.123-0.732,1.684-2.198,1.684H318.508
			L318.508,193.161z M319.34,191.261h4.295c0.186-0.026,0.278-0.061,0.278-0.1c0-0.106-0.054-0.25-0.158-0.436
			c-0.277-0.528-0.893-0.791-1.843-0.791h-0.198C320.633,189.974,319.84,190.417,319.34,191.261z"/>
		<path fill="#4C4D45" d="M330.822,188.132c0.567-0.145,1.042-0.217,1.426-0.217c0.171,0,0.362,0.006,0.572,0.02
			c0.675,0.066,1.258,0.326,1.754,0.782c0.495,0.455,0.768,0.842,0.822,1.158v0.08c0,0.275-0.127,0.501-0.377,0.672
			c-0.212,0.158-0.428,0.258-0.653,0.297h-0.08c-0.277,0-0.487-0.126-0.633-0.376c-0.264-0.356-0.582-0.581-0.95-0.673
			c-0.133-0.053-0.251-0.08-0.356-0.08c-0.237,0-0.476,0.066-0.713,0.198c-0.331,0.146-0.587,0.619-0.771,1.426v6.89h3.188
			c0.29,0.33,0.435,0.652,0.435,0.971c0,0.356-0.157,0.679-0.476,0.97h-6.117c-0.291-0.291-0.435-0.613-0.435-0.97
			c0-0.318,0.139-0.641,0.415-0.971h1.009v-8.216h-1.028c-0.265-0.332-0.396-0.66-0.396-0.991c0-0.303,0.131-0.626,0.396-0.97
			H330.822z"/>
	</g>
</g>
</svg>
