<?xml version="1.0" encoding="utf-8"?>
<!-- Generator: Adobe Illustrator 16.0.0, SVG Export Plug-In . SVG Version: 6.00 Build 0)  -->
<!DOCTYPE svg PUBLIC "-//W3C//DTD SVG 1.1//EN" "http://www.w3.org/Graphics/SVG/1.1/DTD/svg11.dtd">
<svg version="1.1" id="Capa_1" xmlns="http://www.w3.org/2000/svg" xmlns:xlink="http://www.w3.org/1999/xlink" x="0px" y="0px"
	 width="768px" height="1082.784px" viewBox="0 0 768 1082.784" enable-background="new 0 0 768 1082.784" xml:space="preserve">
<g>
	<g>
		<g>
			<path fill="#68E1D3" d="M321.652,419.34c2.847,1.962,5.098,3.663,8.424,3.747c4.899,0.117,9.01-0.854,12.561-4.437
				c3.559-3.594,7.447-6.858,11.483-10.538c0.793,1.075,1.699,2.042,2.312,3.167c1.542,2.837,2.76,5.871,4.464,8.599
				c2.739,4.392,6.847,6.696,12.071,6.919c1.939,0.08,3.688-0.398,5.074-1.775c2.938-2.931,6.293-5.545,7.905-9.52
				c1.015-2.489,2.887-4.102,5.039-6.027c2.235,1.479,3.194,3.862,4.739,5.721c1.904,2.292,3.658,4.798,5.908,6.706
				c5.148,4.386,11.789,3.109,15.324-2.655c0.361-0.588,0.59-1.268,0.994-1.82c5.367-7.379,7.955-6.833,13.018-1.495
				c1.66,1.753,3.521,2.95,5.625,3.89c4.088,1.822,6.879,1.19,9.853-2.232c1.36-1.563,2.575-3.254,3.891-4.861
				c1.869-2.303,4.217-3.396,7.267-3.239c3.192,0.164,6.395,0.037,9.938,0.037c1.551,3.245,3.133,6.551,4.846,10.147
				c-0.778,1.073-1.354,2.417-2.371,3.182c-4.967,3.759-9.932,7.514-15.813,9.861c-2.547,1.021-4.854,2.632-7.301,3.911
				c-7.535,3.934-14.832,8.224-22.797,11.458c-7.427,3.015-15.354,4.998-22.207,9.373c-1.875,1.191-3.869,1.452-5.959,1.333
				c-6.33-0.358-12.368,0.755-18.294,3.007c-2.087,0.794-4.493,0.904-6.769,1.013c-5.065,0.249-10.112,0.6-15.164,0.998
				c-7.557,0.592-15.221,0.046-22.827-0.28c-3.896-0.171-7.775-0.918-11.669-1.396c-1.145-0.136-2.309-0.156-3.438-0.382
				c-3.617-0.708-5.215-2.629-5.101-6.224c0.056-1.613,0.228-3.25,0.599-4.809c2.293-9.653,4.648-19.29,7.02-28.927
				C320.455,421.16,320.936,420.609,321.652,419.34z"/>
			<path fill="#18B6B8" d="M440.048,413.386c-1.629-1.019-2.795-1.714-3.928-2.458c-1.906-1.259-3.762-2.62-5.711-3.818
				c-4.588-2.821-8.951-1.844-12.771,1.394c-2.26,1.905-4.082,4.353-5.936,6.687c-2.277,2.853-4.187,3.198-6.838,0.59
				c-2.457-2.418-4.648-5.122-6.949-7.699c-0.916-1.032-1.703-2.219-2.771-3.063c-2.536-2.023-5.104-2.059-7.536,0.093
				c-2.566,2.271-5.188,4.49-6.831,7.715c-1.005,1.978-2.934,3.468-4.32,5.271c-2.76,3.583-7.25,2.679-10.299-0.342
				c-0.964-0.959-1.61-2.248-2.392-3.391c-1.433-2.095-2.738-4.291-4.303-6.279c-3.366-4.271-6.253-4.667-10.664-1.517
				c-3.756,2.688-7.546,5.341-11.117,8.26c-4.534,3.706-9.967,2.267-14.05-2.205c-1.424-1.558-1.063-3.47-0.684-5.273
				c0.952-4.52,2.027-9.005,2.968-13.523c0.376-1.792,0.585-3.63,0.77-5.456c0.574-5.725,1.062-11.457,1.685-17.175
				c0.117-1.102,0.699-2.146,0.965-2.922c1.752-1.367,2.846,0.075,4.09,0.327c3.519,0.712,6.396-0.157,8.499-3.158
				c2.107-3.012,4.203-6.032,6.19-8.886c1.846-0.331,2.061,0.984,2.579,1.937c2.847,5.266,5.661,10.555,8.544,15.802
				c1.9,3.455,4.976,4.573,8.762,4.192c1.993-0.195,3.562-1.093,4.479-2.831c1.075-2.039,1.979-4.169,2.941-6.261
				c1.141-2.495,2.061-5.149,4.673-6.95c2.742,2.032,3.81,5.192,5.752,7.665c2.126,2.712,4.173,5.516,6.598,7.942
				c2.797,2.808,7.229,2.556,9.856-0.333c1.066-1.174,1.822-2.644,2.611-4.034c0.57-1.001,0.906-2.128,1.432-3.15
				c1.566-3.004,3.426-3.267,5.943-0.717c1.785,1.807,3.522,3.671,5.088,5.662c3.074,3.897,7.193,3.807,11.338,2.897
				c1.406-0.313,2.754-1.641,3.758-2.819c3.791-4.429,6.894-9.243,7.767-15.208c0.295-2.006,0.471-4.153,2.291-5.583
				c3.088,3.838,9.245,16.47,15.641,32.921c1.719,4.422,4.541,8.544,4.678,14.05c-1.953,0.252-3.721,0.722-5.471,0.659
				c-4.996-0.167-8.943,1.743-12.162,5.473C443.72,409.591,442.095,411.207,440.048,413.386z"/>
			<path fill="#68E1D3" d="M336.097,362.484c-4.968-2.189-5.21-2.42-4.798-6.031c0.264-2.29,0.618-4.595,1.23-6.807
				c2.965-10.659,6.03-21.286,9.152-32.264c1.407,0.295,2.928,0.75,4.47,0.909c3.065,0.328,4.734-0.572,6.042-3.447
				c1.047-2.297,1.723-4.762,2.686-7.104c0.484-1.173,1.232-2.24,2.119-3.815c1.753,2.296,1.334,4.458,1.479,6.384
				c0.252,3.367,1.511,6.287,3.443,8.92c2.906,3.962,6.775,4.517,10.803,1.827c2.362-1.576,4.269-3.467,5.377-6.147
				c0.958-2.321,2.107-4.569,3.275-7.072c2.764,1.875,3.724,4.584,4.85,7.003c1.448,3.102,3.735,5.234,6.454,7.024
				c4.328,2.856,8.498,1.84,11.045-2.607c1.035-1.799,2.019-3.625,3.06-5.416c0.227-0.388,0.606-0.687,1.19-1.329
				c1.664,2.349,3.255,4.556,4.798,6.789c0.521,0.755,0.87,1.639,1.434,2.362c3.186,4.156,6.473,4.873,13.066,2.786
				c4.721,7.074,7.051,15.404,11.211,22.306c-1.955,5.927-3.521,11.465-5.656,16.777c-1.096,2.716-3.076,5.13-4.912,7.478
				c-1.723,2.199-3.891,2.404-6.055,0.688c-2.347-1.864-4.451-4.038-6.806-5.891c-1.229-0.968-2.688-1.928-4.176-2.206
				c-3.43-0.648-6.328,0.252-8.213,3.611c-1.332,2.363-2.182,5.151-5.133,6.835c-3.008-0.999-5.004-3.507-6.947-6.011
				c-1.979-2.553-3.746-5.265-5.685-7.847c-2.283-3.052-4.765-3.5-7.638-1.057c-1.724,1.462-3.131,3.369-4.432,5.247
				c-1.441,2.083-2.548,4.392-3.902,6.541c-1.505,2.383-3.365,2.579-4.883,0.426c-1.865-2.633-3.694-5.322-5.219-8.161
				c-1.854-3.436-3.379-7.042-5.033-10.586c-1.393-3.01-3.926-3.896-6.733-2.027c-1.701,1.133-3.228,2.611-4.601,4.144
				C340.322,357.102,338.386,359.665,336.097,362.484z"/>
			<path fill="#F85B68" d="M362.743,162.606c0.177-5.302,0.271-10.606,0.569-15.9c0.117-2.051,0.563-4.11,1.12-6.092
				c0.404-1.462,1.723-2.172,3.207-2.178c1.494-0.003,2.772,0.739,3.204,2.186c0.516,1.754,0.9,3.592,1.003,5.418
				c0.287,5.07,0.431,10.15,0.566,15.23c0.069,2.76,0.011,5.52,0.011,8.26c2.373,0.451,2.349-1.398,2.794-2.426
				c2.763-6.388,5.761-12.614,10.634-17.723c1.754-1.833,3.533-3.648,5.429-5.335c1.287-1.143,2.846-1.428,4.504-0.588
				c1.436,0.723,2.93,1.334,4.369,2.057c2.801,1.42,3.991,4.229,2.506,6.905c-1.777,3.199-3.928,6.196-6,9.232
				c-0.91,1.328-2.101,2.465-3.019,3.784c-3.553,5.082-7.041,10.203-10.747,15.59c4.031,0.283,7.11-0.898,9.743-3.379
				c4.129-3.884,9.218-6.106,14.437-7.976c1.889-0.678,4.057-0.902,6.08-0.827c2.522,0.089,4.479,2.356,3.893,4.747
				c-1.295,5.326-2.375,10.836-8.631,13.127c-4.756,1.736-9.26,4.153-13.977,6.01c-3.896,1.535-7.257,3.749-11.135,6.716
				c1.478,0.726,2.181,1.206,2.962,1.429c4.656,1.33,9.377,2.447,13.982,3.945c3.619,1.178,4.973,3.499,4.098,6.064
				c-0.776,2.277-2.967,3.452-6.379,2.622c-6.467-1.57-13.134-2.573-18.779-6.671c-1.969-1.43-4.55-2.007-6.461-2.805
				c-3.787,1.104-6.067,3.024-7.602,6.196c-2.299,4.768-5.056,9.314-7.521,14.008c-2.404,4.575-3.677,5.244-8.773,4.598
				c-3.738-0.469-7.114-1.483-9.486-4.713c-1.705-2.329-1.595-4.873,0.721-6.729c1.795-1.439,3.818-2.584,5.695-3.926
				c1.261-0.902,2.435-1.921,3.556-2.813c-0.615-1.87-1.928-1.541-2.979-1.554c-6.008-0.084-12.016-0.047-18.021-0.176
				c-2.057-0.048-4.149-0.278-6.148-0.755c-2.357-0.564-3.664-2.24-3.043-4.61c0.557-2.105,0.011-3.16-1.197-4.833
				c-2.704-3.741-0.76-7.437,3.857-7.7c3.688-0.207,7.393,0.009,11.088,0.02c3.452,0.012,6.91,0.002,10.244,0.002
				c1.103-1.425,0.165-2.223-0.578-3.077c-1.822-2.09-3.557-4.258-5.463-6.271c-4.082-4.314-6.201-9.684-8.203-15.107
				c-0.881-2.388-0.263-4.505,1.414-5.578c1.944-1.241,4.076-1.233,5.856,0.126c2.929,2.238,5.648,4.754,8.492,7.106
				c1.144,0.946,2.385,1.77,4.254,3.143c-0.377-3.666-1.49-6.236-2.739-8.593c-2.703-5.09-2.328-10.764-3.494-16.132
				c-0.351-1.604,0.416-3.202,2.071-4.034c1.65-0.827,3.298-0.513,4.451,0.764c1.994,2.213,4.002,4.478,5.565,6.99
				c2.523,4.059,4.697,8.337,7.019,12.523C362.086,162.801,362.413,162.706,362.743,162.606z"/>
			<path fill="#F8A613" d="M472.048,451.867c-3.551,8.727-4.914,9.341-14.162,6.51c-4.91,5.925-4.91,5.925-15.389,5.309
				c-2.057,3.896-5.215,6.141-10.207,4.174c-0.711,1.341-1.377,2.517-1.979,3.72c-2.139,4.308-4.147,5.455-8.786,4.752
				c-1.32-0.194-2.601-0.698-3.927-1.067c-0.987,1.177-1.703,2.47-2.791,3.209c-1.272,0.874-3.082,2.042-4.299,1.724
				c-3.389-0.889-6.104-0.019-9.043,1.504c-1.266,0.653-3.147,0.107-5.057,0.107c-1.814,1.832-3.603,3.942-6.67,4.2
				c-3.024,0.257-5.175-1.411-7.264-2.968c-7.186,6.997-9.133,7.269-16.058,3.361c-2.256,1.488-4.521,4.04-7.731,3.346
				c-2.664-0.576-5.188-1.812-7.963-2.82c-7.703,2.572-6.334,2.415-12.237-1.105c-2.565,0.339-5.65,1.939-8.396,0.254
				c-2.279-1.398-4.119-3.519-6.555-5.677c-0.896,0.644-2.156,1.505-3.372,2.423c-6.013,4.536-10.188,3.842-14.415-2.438
				c-0.384-0.569-0.638-1.217-1.157-2.229c-1.646,0-3.482,0.176-5.279-0.039c-4.042-0.472-6.149-3.338-5.173-7.339
				c0.414-1.698,1.479-3.347,2.604-4.733c1.403-1.721,3.374-2.271,5.63-1.593c2.395,0.717,4.718,1.434,7.379,1.353
				c1.722-0.052,3.496,1.722,5.973,3.072c2.814-0.776,6.128-0.249,9.736,1.355c4.293,1.926,9.051,3.227,13.973,2.867
				c2.941-0.218,5.429,0.78,7.033,2.859c7.113-1.62,7.113-1.62,12.633,2.541c0.728-0.812,1.502-1.613,2.206-2.478
				c2.772-3.389,5.229-4.191,9.004-2.634c1.465,0.606,2.754,1.624,4.503,2.682c1.072-0.921,2.406-1.797,3.398-2.962
				c1.661-1.955,3.68-2.688,6.141-2.432c0.913,0.095,1.82,0.352,2.739,0.387c4.26,0.167,8.219-0.401,11.064-4.168
				c2.883-3.822,6.793-5.139,11.545-4.766c2.733,0.209,5.524-0.32,8.285-0.373c3.34-0.063,6.315-0.67,8.657-3.444
				c0.984-1.161,2.636-1.777,4.031-2.563c1.18-0.67,2.66-0.986,3.607-1.878c3.524-3.316,7.819-4.909,12.42-5.628
				c3.364-0.529,6.096-1.693,8.246-4.445c1.553-1.995,3.493-3.512,6.282-3.943c1.388-0.209,2.793-1.524,3.804-2.673
				c1.537-1.764,2.907-3.504,5.416-4.005c1.051-0.21,2.108-0.946,2.912-1.708c2.272-2.146,4.682-3.626,8.026-3.254
				c1.008,0.11,2.111-0.682,3.176-1.029c1.084-0.354,2.156-0.855,3.265-0.991c2.229-0.273,4.094,0.542,5.373,2.44
				c1.276,1.902,1.233,3.912,0.266,5.916c-0.291,0.615-0.684,1.263-1.205,1.68c-2.039,1.644-2.135,3.863-2.276,6.239
				c-0.104,1.769-0.563,3.652-1.398,5.206c-1.059,1.958-3.248,2.971-5.33,2.512C479.401,449.346,475.997,450.539,472.048,451.867z"
				/>
			<path fill="#18B6B8" d="M397.583,317.115c-3.379-0.887-5.273-2.71-6.754-5.184c-1.885-3.167-3.826-6.311-5.958-9.314
				c-1.781-2.511-4.516-2.575-6.303-0.068c-1.867,2.615-3.285,5.544-4.986,8.277c-0.967,1.545-1.972,3.12-3.226,4.419
				c-1.539,1.594-3.655,1.426-4.688-0.416c-1.215-2.185-2.112-4.563-3.009-6.912c-0.813-2.14-1.306-4.409-2.19-6.52
				c-0.901-2.163-2.546-2.691-4.45-1.65c-2.48,1.353-4.502,3.178-5.754,5.785c-0.873,1.821-1.84,3.594-2.651,5.172
				c-1.753,0.071-1.958-1.003-2.053-1.778c-0.258-2.279-0.74-4.655-0.376-6.858c1.593-9.547,3.451-19.047,5.244-28.555
				c0.119-0.645,0.488-1.246,0.723-1.804c3.271-0.334,6.656-0.017,9.458-1.151c2.827-1.138,5.074-3.722,7.713-5.784
				c1.868,0.72,2.017,2.806,3,4.253c0.904,1.335,1.794,2.689,2.587,4.089c1.433,2.52,3.683,3.326,6.403,3.227
				c1.965-0.07,3.604-0.835,4.686-2.498c0.986-1.516,1.853-3.102,3.056-5.136c1.398,1.248,2.886,2.042,3.563,3.28
				c2.578,4.689,6.459,6.271,11.563,5.526c0.426-0.067,0.892,0.137,1.801,0.292c0.929,1.745,2.095,3.698,3.05,5.753
				c4.649,10.042,9.243,20.107,13.842,30.175c0.381,0.827,0.879,1.725,0.863,2.586c-0.013,0.777-0.47,1.92-1.068,2.216
				c-0.564,0.279-1.924-0.066-2.334-0.602c-1.971-2.535-3.693-5.259-5.598-7.852c-0.947-1.289-1.99-2.555-3.193-3.604
				c-2.238-1.969-4.621-1.866-6.738,0.309c-0.934,0.954-1.578,2.218-2.25,3.397c-0.799,1.402-1.457,2.877-2.229,4.285
				C398.886,315.265,398.325,315.994,397.583,317.115z"/>
			<path fill="#68E1D3" d="M399.921,271.423c-0.883-0.487-1.748-0.76-2.303-1.33c-1.611-1.646-2.982-3.532-4.652-5.113
				c-4.279-4.061-6.802-3.8-10.04,0.927c-1.02,1.484-1.904,3.058-3.047,4.909c-2.755-1.523-4.045-3.919-5.314-6.307
				c-1.081-2.032-1.931-4.204-3.166-6.133c-1.438-2.252-4.12-2.288-5.842-0.219c-1.614,1.943-2.979,4.114-4.729,5.925
				c-2.117,2.186-4.693,2.652-7.754,1.018c3.397-18.759,9.415-36.542,17.022-54.473c4.242,5.041,7.925,9.708,10.726,14.969
				c6.945,13.055,13.087,26.498,18.546,40.241C400.21,267.946,400.2,267.95,399.921,271.423z"/>
		</g>
		<g>
			<path fill="#F85B68" d="M305.684,514.123c-2.703,5.398-5.082,11.013-8.245,16.115c-1.436,2.309-4.237,3.906-6.737,5.306
				c-6.578,3.662-13.279,7.152-20.038,10.5c-8.309,4.117-16.811,7.6-26.571,7.837c-8.729,0.219-17.442,0.854-26.094,1.741
				c-6.744,0.688-13.469-0.141-20.206-0.627c-2.944-0.224-6.011-0.646-9.042-3.113c0.218-11.271,2.43-22.397,3.558-33.158
				c1.163-1.658,2.114-0.616,2.997-0.476c4.193,0.646,6.189-0.561,7.072-4.313c0.798-3.349-0.577-5.272-4.12-5.688
				c-0.743-0.082-1.503,0.094-2.244,0.012c-0.466-0.047-0.916-0.346-1.405-0.554c0.688-6.906,1.361-13.818,2.064-20.729
				c0.92-9.143,2.102-18.22,2.264-27.514c0.157-8.712,1.945-17.271,2.815-25.933c1.282-12.617,2.302-25.271,3.581-37.888
				c0.707-6.918,1.611-13.813,2.676-20.666c0.412-2.666,1.406-5.226,2.334-7.754c0.954-2.599,3.467-3.031,5.252-0.914
				c4.332,5.133,8.439,10.471,11.148,16.595c1.686,3.818,3.899,7.224,6.451,10.479c7.202,9.179,13.443,18.923,19.016,29.12
				c11.48,21.001,23.594,41.669,36.46,61.923c3.726,5.867,6.985,12.016,10.435,18.046
				C301.146,506.043,303.15,509.623,305.684,514.123z M264.494,542.094c-0.832-1.523-1.904-3.842-3.291-5.958
				c-1.025-1.564-3.497-1.721-4.66-0.567c-3.327,3.289-2.423,9.192,1.795,11.542c1.398,0.788,2.883,1.111,4.251,0.197
				C264.1,546.296,264.91,544.886,264.494,542.094z M220.46,547.808c-1.019-1.711-1.768-3.346-2.853-4.729
				c-2.214-2.83-5.818-2.407-7.248,0.723c-1.005,2.198-0.158,5.136,1.946,6.772c1.805,1.396,4.747,1.693,6.281,0.345
				C219.416,550.19,219.793,548.962,220.46,547.808z M208.011,432.055c0.343,3.197,2.514,5.11,5.487,4.845
				c2.703-0.24,4.498-2.342,4.152-4.87c-0.433-3.264-3.229-5.705-6.12-5.354C209.078,426.975,207.693,429.098,208.011,432.055z
				 M214.765,491.166c0.225,0.739,0.382,1.48,0.674,2.166c1.146,2.657,4.208,3.156,5.853,0.934c0.561-0.755,0.898-1.69,1.461-2.445
				c0.959-1.277,1.162-2.61,0.201-4.044c-1.268-1.894-3.349-2.835-5.109-2.345c-1.777,0.498-2.836,1.706-3.09,3.554
				C214.66,489.692,214.76,490.449,214.765,491.166z M227.65,416.765c-0.551,0.387-1.848,0.821-2.383,1.737
				c-1.459,2.482,0.021,6.201,2.797,7.652c1.655,0.864,3.575,0.537,4.675-0.821c1.368-1.686,1.333-3.599,0.411-5.585
				C232.264,417.841,230.386,416.738,227.65,416.765z M274.586,471.387c-0.57-3.188-2.974-5.076-5.792-4.547
				c-2.04,0.384-3.243,2.128-2.957,4.278c0.411,3.144,2.813,5.359,5.497,5.064C273.544,475.942,275.012,473.776,274.586,471.387z
				 M229.619,393.25c-0.57-0.875-1.475-2.712-2.791-4.188c-1.365-1.524-4.262-1.133-5.273,0.417
				c-1.158,1.788-1.031,4.612,0.317,6.373c1.229,1.6,2.904,2.074,4.729,1.953C228.297,397.698,229.826,395.91,229.619,393.25z
				 M244.359,449.572c-2.146,0.26-3.659,2.559-3.205,4.878c0.501,2.552,2.818,4.117,5.64,3.805c2.105-0.233,3.634-1.963,3.438-3.916
				C249.973,451.703,246.963,449.256,244.359,449.572z M223.002,463.601c-0.365-0.687-0.57-1.497-1.078-1.933
				c-1.838-1.57-4.035-2.263-6.243-1.71c-1.017,0.25-2.106,1.165-2.577,2.107c-0.752,1.504,0.265,2.882,1.539,3.817
				c2.363,1.729,5.321,1.589,7.443-0.336C222.561,465.128,222.682,464.309,223.002,463.601z M263.754,499.042
				c1.262-1.659,2.52-3.123,3.541-4.737c0.974-1.533,0.4-3.67-1.041-4.718c-1.723-1.258-4.255-1.078-5.447,0.343
				c-1.211,1.454-1.047,3.199-0.793,4.969C260.268,496.706,260.686,498.418,263.754,499.042z M295.779,517.967
				c-0.127-2.219-2.367-4.145-4.673-4.008c-2.092,0.121-3.649,1.707-3.677,3.735c-0.033,2.306,1.943,4.357,4.289,4.443
				C293.954,522.221,295.912,520.211,295.779,517.967z M269.229,519.514c-0.262-1.881-2.231-3.438-4.376-3.438
				c-2.095,0-3.709,1.636-3.624,3.679c0.101,2.303,2.369,4.149,4.666,3.796C267.955,523.234,269.48,521.393,269.229,519.514z
				 M240.338,513.348c-2.256,0.017-4.268,2.078-4.133,4.234c0.098,1.654,1.816,3.295,3.565,3.41
				c2.442,0.154,4.507-1.558,4.506-3.741C244.276,515.303,242.283,513.331,240.338,513.348z M254.05,432.733
				c-0.435-2.111-2.327-3.658-4.253-3.479c-2.057,0.193-3.72,2.047-3.462,3.845c0.321,2.244,2.533,3.992,4.813,3.801
				C253.148,436.738,254.48,434.823,254.05,432.733z M280.452,505.789c2.038-0.148,3.498-1.995,3.163-4.021
				c-0.289-1.721-1.935-3.17-3.658-3.204c-2.346-0.053-4.332,1.966-4.021,4.063C276.201,504.417,278.37,505.93,280.452,505.789z
				 M211.806,518.404c-0.313,0.888-1.157,2.102-1.06,3.307c0.148,1.861,2.423,3.189,4.505,3.066c1.69-0.105,3.184-2.064,2.696-3.555
				C217.312,519.295,214.74,517.928,211.806,518.404z M244.047,479.33c-0.117-2.104-1.66-3.562-3.059-3.131
				c-0.934,0.295-1.926,1.261-2.25,2.18c-0.458,1.287,1.206,3.125,2.57,2.803C242.446,480.912,243.344,479.836,244.047,479.33z"/>
			<path fill="#F8CF13" d="M187.911,558.841c6.306,1.146,11.469,2.222,16.662,2.967c2.96,0.423,5.998,0.566,8.952,0.402
				c11.186-0.627,22.334-1.602,33.531-2.117c9.678-0.459,18.242-3.791,26.527-7.987c5.854-2.966,11.424-6.503,17.473-9.037
				c8.394-3.525,13.775-9.604,17.146-17.823c0.458-1.115,1.073-2.166,1.646-3.227c0.104-0.201,0.36-0.313,0.626-0.519
				c2.372,0.051,4.823-0.324,7.128,1.321c3.521,2.513,4.591,5.224,3.589,9.179c-0.945,3.746-3.044,6.825-6.043,8.882
				c-4.268,2.938-7.313,6.957-10.868,10.549c-4.913,4.959-10.416,9.283-17.166,12.015c-10.402,4.207-20.616,8.818-31.711,11.329
				c-1.677,0.381-3.34,0.92-5.051,1.02c-14.414,0.828-28.828,1.691-43.269,2.244c-4.188,0.156-8.492-0.479-12.71-1.119
				c-4.248-0.65-11.717-3.332-11.775-7.716C182.563,566.024,184.648,561.333,187.911,558.841z"/>
			<path fill="#F8CF13" d="M191.613,358.126c-1.188-1.576-2-2.53-2.67-3.577c-1.516-2.388-3.045-4.776-4.407-7.241
				c-1.448-2.625-2.003-5.315,0.099-7.677c2.028-2.274,5.521-2.596,8.957-0.776c1.75,0.926,3.377,2.096,5.797,3.629
				c-0.152-3.439-0.477-6.114-0.33-8.729c0.186-3.396,3.672-4.906,6.621-3.023c0.627,0.403,1.074,1.092,1.628,1.624
				c0.515,0.505,1.063,0.968,1.987,1.813c1.119-2.377,2.033-4.554,3.147-6.609c0.856-1.587,2.282-2.57,4.259-2.198
				c1.919,0.358,3.228,1.604,3.701,3.488c0.671,2.693,1.18,5.419,1.846,8.571c1.15,0.344,2.348,0.571,3.442,1.058
				c3.959,1.766,5.44,4.859,3.887,8.522c-1.337,3.138-2.9,6.173-4.534,9.15c-1.754,3.209-5.096,4.445-9.68,2.985
				c-3.242-1.039-4.99-0.692-6.51,2.41c-1.432,2.917-4.623,4.546-7.667,5.142c-5.298,1.034-10.825,1.216-16.251,1.741
				c-0.24,0.025-0.499-0.052-0.748-0.094c-2.17-0.337-3.826-1.876-4.191-3.893c-0.357-1.962,0.676-4.192,2.637-4.709
				C185.217,359.043,187.937,358.758,191.613,358.126z"/>
		</g>
		<g>
			<path fill="#F8A613" d="M587.538,525.12c3.281,13.942,4.58,27.098,6.469,40.295c-2.389,2.102-5.381,2.213-8.108,1.914
				c-8.552-0.947-17.068-2.18-25.576-3.402c-7.525-1.086-14.25-4.121-20.443-8.172c-7.315-4.783-14.594-9.623-21.707-14.672
				c-5.973-4.236-11.508-8.942-16.203-14.507c-5.541-6.56-11.363-12.906-16.871-19.493c-2.119-2.54-3.567-5.565-5.555-8.205
				c-2.121-2.827-1.885-5.324-0.078-8.25c1.865-3.007,3.115-6.358,4.65-9.549c0.938-1.942,1.899-3.868,3.246-6.594
				c1.737,2.161,3.186,3.669,4.278,5.375c4.769,7.473,10.605,14.117,16.961,20.425c7.832,7.771,16.984,13.964,27.193,18.306
				c10.986,4.674,22.758,7.467,34.871,8.402c2.24,0.174,4.545-0.392,6.815-0.65C580.587,525.984,583.683,525.592,587.538,525.12z"/>
			<path fill="#F85B68" d="M581.063,474.61c1.997,7.456,5.188,35.978,4.717,41.732c-6.851,2.03-13.918,2.591-20.984,0.985
				c-7.504-1.715-15.076-3.42-22.277-5.999c-8.893-3.167-16.672-8.396-23.717-14.396c-10.887-9.274-19.313-19.785-26.854-32.797
				c0.537-3.887,3.354-7.128,4.924-10.845c1.561-3.702,2.797-7.563,5.457-11.457c2.967,2.031,4.074,4.841,5.574,7.254
				c7.2,11.594,18.069,19.329,30.186,25.737c5.088,2.688,10.697,3.757,16.525,3.749c2.301-0.003,4.596-0.132,6.881-0.021
				c5.541,0.292,10.83-0.465,15.817-2.874C578.31,475.202,579.481,475.055,581.063,474.61z"/>
			<path fill="#F8A613" d="M506.368,431.752c2.481-7.959,11.928-26.295,17.418-33.982c1.336,1.811,2.744,3.365,3.746,5.127
				c5.426,9.543,13.145,16.985,22.844,22.683c0.969,0.571,1.975,1.116,2.859,1.801c6.039,4.669,13.028,6.63,20.735,6.709
				c0.812,0.009,1.621,0.354,2.318,0.511c1.834,5,3.506,20.562,3.408,31.719c-2.133,1.55-4.937,2.165-7.693,2.586
				c-14.35,2.21-27.52,0.864-39.818-7.994C521.081,452.903,514.077,442.297,506.368,431.752z"/>
			<path fill="#F85B68" d="M473.794,505.553c28.174,35.958,24.941,34.559,72.996,64.826c-0.385,0.266-0.82,0.787-1.1,0.725
				c-5.896-1.37-11.88-1.683-17.916-1.521c-1.423,0.035-2.918-0.035-4.269-0.414c-8.483-2.41-17.057-4.561-25.51-7.16
				c-8.865-2.723-16.559-6.899-24.285-11.629c-5.273-3.234-9.227-7.097-12.537-11.889c-1.508-2.17-2.049-4.262-0.967-6.853
				c2.41-5.771,4.266-11.736,8.186-16.911C470.536,511.896,472.017,508.623,473.794,505.553z"/>
			<path fill="#F8CF13" d="M560.833,294.638c-3.699,1.407-7.25,3.152-10.891,4.708c-8.814,3.781-9.015,8.657-7.795,15.191
				c0.971,5.236,2.571,10.446,9.028,12.889c1.635,0.62,3.013,1.816,4.314,3.084c2.25,0.199,4.611,0.301,6.526,1.493
				c0.156,0.104,0.281,0.272,0.337,0.459c0.543,0.197,1.106,0.354,1.639,0.556c1.057-0.1,2.108-0.217,3.129-0.406
				c6.865-1.277,12.031-4.314,14.729-10.955c1.72-4.219,1.916-8.357,2.023-12.695C584.116,299.307,573.388,289.849,560.833,294.638z
				"/>
			<path fill="#F8A613" d="M564.405,344.125c-0.523-2.473-1.336-4.952-2.232-7.784c-0.637-0.424-1.166-0.936-1.578-1.528
				c-0.248-0.115-0.506-0.215-0.756-0.332c-0.633,0.159-1.295,0.214-1.957,0.136c-3.295,6.52-6.362,12.754-9.646,18.849
				c-1.793,3.332-1.439,6.407,0.789,9.137c3.67,4.507,7.424,8.987,11.602,13.054c2.256,2.191,5.336,3.909,9.437,3.102
				c0.161-4.343-0.505-8.297-1.318-12.276C567.22,359.042,565.97,351.554,564.405,344.125z"/>
			<path fill="#F85B68" d="M575.892,424.772c-4.038,1.378-7.973,0.91-11.065-0.777c-8.68-4.742-17.412-9.578-23.826-17.156
				c-5.018-5.929-8.91-12.541-12.754-18.892c3.109-8.243,7.412-15.394,12.326-20.593c2.08-0.081,2.615,1.688,3.653,2.822
				c1.13,1.23,2.236,2.475,3.253,3.79c5.77,7.518,12.932,13.021,23.424,13.915c0.646,2.03,1.582,3.758,1.698,5.534
				C573.333,403.856,577.524,414.014,575.892,424.772z"/>
		</g>
	</g>
	<g>
		<path fill="#F8A613" d="M187.691,195.513c0.36,8.57,0.516,17.091,1.139,25.575c0.551,7.424,1.633,14.809,2.467,22.215
			c0.268,2.385,0.588,4.767,0.67,7.16c0.023,0.642-0.607,1.695-1.164,1.884c-0.888,0.296-1.979,0.124-2.948-0.052
			c-0.455-0.084-0.95-0.572-1.208-1.012c-3.211-5.418-8.975-8.269-12.966-12.898c-0.521-0.6-1.134-1.144-1.771-1.619
			c-7.659-5.76-15.325-11.5-23.004-17.222c-0.155-0.115-0.492,0.027-1.059,0.071c1.127,14.984,2.229,29.97,3.402,44.949
			c0.131,1.614,0.646,3.314-1.037,4.308c-1.886,1.106-3.708,0.292-5.179-0.936c-4.089-3.427-8.128-6.908-12.087-10.482
			c-3.369-3.038-6.928-5.963-9.818-9.423c-6.227-7.461-14.17-12.971-21.193-19.513c-2.059-1.912-4.146-2.844-7.179-2.55
			c-3.359,0.321-6.82-0.349-10.226-0.687c-0.353-0.037-0.639-0.748-1.002-1.207c1.307-2.028,3.484-2.267,5.516-2.244
			c6.568,0.075,12.606-1.824,18.6-4.256c3.703-1.504,7.547-2.799,11.447-3.596c5.025-1.033,9.751-2.768,14.449-4.698
			c14.1-5.796,28.22-11.509,42.303-17.342c2.701-1.116,5.254-2.591,7.875-3.89c1.188-0.59,2.357-1.59,3.582-1.658
			c4.818-0.278,8.5-3.067,12.395-5.327c6.703-3.884,13.387-7.814,19.906-11.997c5.607-3.6,10.967-7.591,16.46-11.373
			c3.736-2.579,7.581-5.002,11.245-7.676c6.041-4.4,12.273-8.612,17.894-13.504c11.071-9.64,21.735-19.679,31.831-30.425
			c10.088-10.74,19.092-22.292,28.37-33.65c2.514-3.072,4.271-6.76,6.386-10.156c0.756-1.214,1.771-2.036,3.286-1.593
			c1.441,0.426,2.816,2.444,2.308,3.786c-0.93,2.467-1.979,4.939-3.348,7.186c-2.21,3.63-4.713,7.078-7.228,10.803
			c3.289,8.069,6.419,15.991,9.784,23.81c0.708,1.65,2.178,3.027,3.477,4.357c6.335,6.483,9.692,14.628,12.793,22.909
			c0.254,0.677,0.006,1.535-0.004,2.203c-1.781,1.834-3.884,2.126-6.035,1.632c-3.375-0.787-6.78-1.561-10.021-2.734
			c-8.285-3.011-16.507-6.183-24.699-9.42c-1.969-0.78-3.676-2.178-5.606-3.079c-1.379-0.644-2.924-0.932-5.143-1.606
			c0.114,1.556-0.053,2.571,0.29,3.375c1.158,2.693,2.269,5.45,3.808,7.927c4.088,6.577,8.412,13,12.572,19.533
			c1,1.564,1.843,3.255,2.548,4.973c0.894,2.189,1.579,4.474,2.527,7.207c-1.695,0.364-3.015,1.073-4.066,0.791
			c-2.561-0.683-5.127-1.584-7.45-2.844c-4.919-2.672-9.781-5.284-15.178-7.051c-3.995-1.309-7.524-3.987-11.314-5.952
			c-4.016-2.081-8.081-4.072-12.168-6.013c-0.61-0.292-1.445-0.102-2.377-0.145c2.572,12.962,5.082,25.654,7.631,38.339
			c0.416,2.09,1.063,4.124,1.516,6.204c0.394,1.815,0.818,3.653,0.949,5.498c0.229,3.155-1.627,4.445-4.513,3.216
			c-7.63-3.243-14.911-7.131-21.797-11.762c-6.85-4.598-13.644-9.314-21.742-11.731c-1.485,1.235-0.759,2.863-0.536,4.291
			c1.462,9.524,1.624,19.122,1.883,28.729c0.094,3.448,0.895,6.871,0.977,10.323c0.064,2.62-0.35,5.287-0.838,7.881
			c-0.293,1.574-2.526,2.314-3.922,1.42c-2.924-1.866-5.83-3.765-8.635-5.798c-7.105-5.164-14.166-10.378-21.21-15.624
			c-1.929-1.434-3.803-2.953-5.534-4.612C192.771,196.802,190.516,195.664,187.691,195.513z M186.303,241.53
			c-1.371-12.272-3.131-24.07-3.512-36.021c-0.117-3.582-0.17-7.442-2.596-10.545c-7.443,1.928-27.405,10.212-32.298,13.395
			c0.146,3.985,3.333,6.014,5.821,8.206c5.168,4.552,10.765,8.621,16.113,12.984c3.081,2.509,6.05,5.169,9.005,7.83
			C180.779,239.131,182.401,241.343,186.303,241.53z M301.354,113.157c12.207,5.012,23.717,9.743,35.235,14.457
			c1.727,0.705,3.442,1.504,5.242,1.929c1.116,0.265,2.38-0.09,3.703-0.176c-0.604-5.514-3.029-9.73-6.16-13.319
			c-4.136-4.744-6.813-10.137-9.009-15.894c-1.232-3.242-2.549-6.456-3.956-9.623c-0.479-1.083-0.543-2.699-2.748-2.787
			C316.467,95.942,309.131,104.297,301.354,113.157z M235.191,165.607c1.632,1.358,2.322,2.283,3.234,2.641
			c7.557,2.967,13.73,8.151,20.438,12.489c4.463,2.891,9.115,5.503,13.762,8.093c0.919,0.513,2.212,0.341,3.738,0.532
			c-1.988-7.609-3.595-14.6-5.666-21.455c-2.133-7.025-1.674-14.68-5.18-22.236C256.408,154.122,244.668,157.312,235.191,165.607z"
			/>
		<path fill="#F85B68" d="M590.87,214.091c-3.688,6.679-7.574,13.246-10.994,20.041c-3.178,6.316-5.818,12.909-8.805,19.322
			c-0.996,2.127-2.156,4.221-3.56,6.091c-2.944,3.917-7.856,3.086-9.733-1.532c-0.332-0.815-0.572-1.674-0.791-2.526
			c-4.029-16.009-8.043-32.019-12.06-48.009c-3.018-1.394-4.396,0.752-5.774,2.631c-7.16,9.719-14.273,19.475-21.4,29.222
			c-0.691,0.949-1.256,2.017-2.049,2.867c-1.642,1.763-4.574,2.373-6.486,1.39c-1.801-0.927-2.104-2.662-2.277-4.485
			c-1.299-13.187-3.379-26.305-3.325-39.607c0.002-0.767-0.504-1.535-0.996-2.934c-1.254,0.635-2.439,0.92-3.162,1.66
			c-3.701,3.783-7.426,7.567-10.861,11.587c-3.047,3.566-5.307,7.745-9.514,10.348c-1.65,1.016-2.519,3.225-3.941,4.691
			c-1.629,1.667-3.283,3.477-5.281,4.574c-5.34,2.928-7.85,1.546-7.823-4.406c0.041-13.585,0.336-27.168,0.53-40.751
			c0.011-1.093,0-2.186,0-4.05c-3.856,1.235-5.657,3.999-7.823,6.159c-3.951,3.935-7.838,7.941-11.586,12.071
			c-1.55,1.708-2.563,3.903-4.033,5.697c-0.896,1.093-2.09,2.065-3.349,2.706c-1.85,0.949-4.413-0.563-4.727-2.608
			c-0.133-0.865-0.24-1.771-0.133-2.627c0.795-6.144,1.649-12.273,2.488-18.405c0.118-0.879,0.379-1.75,0.403-2.628
			c0.312-10.924,2.373-21.636,4.238-32.741c-3.518-3.547-7.014-7.074-11.424-11.514c2.315,0.311,3.694,0.148,4.651,0.706
			c1.505,0.875,2.763,2.188,4.054,3.396c16.549,15.487,35.291,27.731,55.955,36.869c11.858,5.249,24.084,9.716,36.289,14.137
			c5.512,1.994,11.379,3.026,17.09,4.464c0.848,0.216,1.826,0.071,2.602,0.416c10.744,4.833,22.388,5.002,33.75,6.587
			c2.33,0.32,4.717,0.172,7.068,0.324c3.518,0.222,7.029,0.586,10.541,0.771c4.401,0.229,8.942,1.071,13.176,0.3
			c4.715-0.859,9.361-0.965,14.07-1.141c4.1-0.154,8.162-0.555,12.248-1.048c7.215-0.875,14.608-0.248,22-0.248
			c-0.129,3.229-2.404,4.406-5.168,4.854c-4.068,0.658-8.168,1.12-12.509,1.697c-4.852,6.448-8.018,13.837-10.34,21.322
			c-1.682,5.42-4.58,10.175-6.42,15.44c-0.967,2.762-2.479,5.329-3.715,8c-1.684,3.649-4.971,4.677-7.668,2.033
			c-4.002-3.923-7.688-8.094-9.949-13.418c-3.793-8.937-7.873-17.754-11.883-26.595C592.269,214.756,591.563,214.55,590.87,214.091z
			 M564.325,254.708c4.059-8.912,7.129-16.542,10.951-23.772c3.782-7.138,7.911-14.07,10.809-22.404
			c-6.449-0.984-12.246-1.787-18.012-2.764c-6.017-1.023-12.002-2.209-18.004-3.323c-0.806,5.929-0.693,6.318,1.116,12.164
			c2.437,7.855,4.74,15.749,7.117,23.623C559.823,243.245,561.108,248.347,564.325,254.708z M470.45,171.804
			c-3.281,13.38-3.881,25.06-2.604,48.403c0.037,0.709,0.713,1.387,1.355,2.556c1.758-2.056,2.975-4.131,4.752-5.44
			c4.838-3.578,8.334-8.213,11.602-13.146c1.113-1.693,2.752-3.056,4.22-4.501c3.143-3.104,6.395-6.103,9.465-9.273
			c1.08-1.114,1.766-2.612,2.655-3.969C491.222,181.468,481.146,176.778,470.45,171.804z"/>
	</g>
	<g>
		<path fill="#4C4D45" d="M361.869,705.767c2.418-0.282,4.326-0.033,5.729-0.754c4.795-2.468,9.962-1.235,14.913-1.932
			c11.287,3.38,21.271,8.44,25.64,20.437c0.58,1.591,0.731,3.498,0.516,5.187c-0.656,5.111-2.318,9.903-6.096,13.607
			c-3.06,3.008-6.248,5.889-9.525,8.664c-2.682,2.266-5.576,4.285-8.432,6.455c2.057,8.752,3.151,17.248,6.41,25.334
			c3.301,8.208,6.041,16.662,8.653,25.127c1.191,3.822,1.562,7.914,2.129,11.906c0.222,1.558-0.334,3.063-2.045,3.648
			c-1.617,0.543-3.174,0.021-4.063-1.271c-1.119-1.63-2.031-3.48-2.693-5.355c-4.106-11.711-8.17-23.434-12.119-35.185
			c-0.957-2.861-1.51-5.871-2.063-8.848c-0.554-2.946-0.877-5.94-1.298-8.906c-4.134,0.569-5.216,1.084-5.121,3.227
			c0.563,12.681-2.474,25.216-1.364,37.904c0.196,2.273,0.425,4.559,0.337,6.824c-0.154,3.994-1.947,6.259-4.934,6.65
			c-3.406,0.446-6.587-1.297-7.523-4.959c-0.995-3.895-1.516-7.962-1.743-11.984c-0.257-4.541,0.118-9.108,0.093-13.667
			c-0.045-9.616-0.368-19.231-0.223-28.847c0.164-10.631,0.725-21.253,1.111-31.883c0.112-3.036,0.311-6.071,0.338-9.106
			C358.533,713.645,359.465,709.53,361.869,705.767z M373.182,711.095c-0.344,2.187-0.701,3.424-0.705,4.652
			c-0.024,10.354,0,20.709,0.052,31.063c0.007,1.507,0.219,3.017,0.36,4.524c0.024,0.236,0.14,0.527,0.313,0.672
			c0.166,0.138,0.459,0.118,1.145,0.263c6.425-3.353,12.614-7.694,18.268-12.716c2.391-2.122,4.307-4.935,5.942-7.73
			c1.781-3.041,1.558-6.289-0.66-9.247C391.856,714.504,383.739,711.011,373.182,711.095z"/>
		<path fill="#4C4D45" d="M262.456,767.738c-0.332,3.83-0.522,7.344-0.975,10.826c-1.215,9.313-1.987,18.637-1.505,28.049
			c0.153,3.02-0.199,6.084-0.524,9.108c-0.155,1.482-0.612,2.995-1.222,4.368c-2.035,4.576-7.391,5.229-10.299,1.354
			c-1.9-2.531-2.801-5.202-2.408-8.499c0.502-4.252,0.469-8.579,0.635-12.877c0.183-4.812,0.391-9.63,0.477-14.443
			c0.104-5.569,0.289-11.153,0.09-16.714c-0.322-9.178,0.324-18.244,2.057-27.257c1.105-5.726,1.975-11.434,1.806-17.355
			c-0.122-4.242,0.862-8.559,1.657-12.785c0.594-3.181,2.434-5.62,5.869-6.206c1.188-0.203,2.824-0.371,3.621,0.249
			c2.403,1.872,5.098,2.126,7.893,2.212c10.857,0.321,18.582,6.151,24.605,14.486c2.347,3.235,4.094,7.031,5.486,10.799
			c1.836,4.967,0.338,10.015-0.719,14.956c-0.146,0.699-0.631,1.424-1.157,1.931c-6.6,6.341-13.198,12.679-22.6,14.758
			C271.293,765.566,267.363,766.567,262.456,767.738z M262.85,755.585c10.25-0.891,18.279-4.41,25.008-11.082
			c3.15-3.128,4.264-7.387,2.697-11.653c-2.672-7.268-7.81-12.358-14.53-15.757c-3.515-1.782-7.442-2.827-11.467-1.966
			c-0.417,6.845-0.913,13.355-1.19,19.884C263.088,741.545,263.031,748.089,262.85,755.585z"/>
		<path fill="#4C4D45" d="M327.014,714.531c3.063,4.701,4.067,9.719,5.191,14.589c1.532,6.645,2.512,13.423,3.73,20.138
			c2.536,13.955,5.077,27.903,7.596,41.864c0.221,1.242,0.458,2.511,0.42,3.762c-0.172,5.386,0.841,10.568,2.313,15.726
			c0.543,1.9,0.806,3.977,0.683,5.941c-0.156,2.563-2.179,4.339-4.405,4.449c-2.001,0.105-3.891-1.013-4.595-3.271
			c-1.879-6.029-4.088-12-4.058-18.468c0.031-5.596-0.907-11.06-2.719-16.729c-4.943-0.778-9.891-1.556-15.353-2.417
			c-0.464,1.445-1.2,3.009-1.469,4.646c-1.72,10.516-3.316,21.042-5.011,31.553c-0.361,2.238-0.741,4.523-1.517,6.646
			c-1.092,3.001-3.824,4.41-6.619,3.819c-2.511-0.53-4.408-2.528-4.513-5.402c-0.107-3.026-0.026-6.104,0.4-9.089
			c2.519-17.572,5.494-35.054,10.29-52.175c0.478-1.707,0.92-3.446,1.144-5.2c1.408-11.124,4.685-21.775,8.033-32.423
			c2.015-6.404,1.971-6.425,8.415-7.808C325.449,714.575,325.965,714.604,327.014,714.531z M323.307,738.729
			c-1.825,2.618-1.912,5.382-2.344,7.995c-0.498,2.987-0.787,6.007-1.264,8.997c-0.439,2.747-1.132,5.449-1.479,8.201
			c-0.356,2.869-1.984,5.699-0.637,8.899c4.057,0.122,7.891,1.6,11.852,0.682C329.326,764.036,325.958,744.608,323.307,738.729z"/>
		<path fill="#4C4D45" d="M441.753,721.87c-0.481,0.804-0.928,1.203-0.951,1.635c-1.018,15.666-2.254,31.313-0.571,47.017
			c0.452,4.255,0.327,8.607,0.075,12.893c-0.549,9.171,0.632,18.202,1.847,27.235c0.237,1.756,0.506,3.515,0.647,5.279
			c0.084,0.996,0.072,2.033-0.106,3.009c-0.379,1.994-2.381,3.732-4.242,3.746c-1.949,0.019-3.533-0.854-4.248-2.632
			c-0.748-1.864-1.365-3.836-1.652-5.813c-2.071-14.529-4.295-29.029-3.467-43.822c0.568-10.109,0.428-20.258,0.734-30.373
			c0.174-5.564,0.612-11.122,0.907-16.689c0.052-0.986-0.01-1.978-0.026-3.087c-3.828-1.822-7.972-1.844-11.83-2.94
			c-2.182-0.618-4.404-1.178-6.473-2.089c-1.988-0.877-3.066-2.645-2.923-4.896c0.125-1.976,2.365-3.882,4.814-4.146
			c0.998-0.113,2.037-0.104,3.029,0.039c12.799,1.758,25.588,3.6,38.391,5.307c4.65,0.622,7.084,3.152,8.205,7.652
			c0.83,3.337-1.103,5.843-4.025,5.871c-3.233,0.021-6.506-0.696-9.711-1.318c-1.711-0.334-3.297-1.274-4.996-1.689
			C444.017,721.768,442.753,721.908,441.753,721.87z"/>
		<path fill="#4C4D45" d="M510.255,711.769c-0.311-2.073-2.494-2.892-4.207-1.843c-4.613,2.823-6.354,10.196-8.229,14.809
			c-2.449,6.024-4.236,12.029-5.496,18.189c-0.56-0.704-1.039-1.301-1.363-1.884c-3.197-5.769-6.326-11.574-9.545-17.324
			c-0.99-1.765-2.006-3.568-3.344-5.051c-1.777-1.967-4.023-2.979-6.521-1.853c-1.328,2.182-1.418,4.19-0.717,6.169
			c4.484,12.634,8.184,25.66,17.982,36.116c-0.697,3.349-1.263,6.835-2.191,10.224c-1.404,5.128-3.498,10.104-4.537,15.295
			c-1.752,8.704-4.135,17.214-6.672,25.699c-0.752,2.509-0.77,4.994,0.191,7.449c0.805,2.067,3.592,2.663,5.004,0.986
			c0.799-0.949,1.426-2.074,1.979-3.202c3.726-7.564,5.182-15.836,7.254-23.911c0.82-3.185,1.49-6.413,2.342-9.595
			c1.183-4.405,2.867-8.712,3.63-13.189c1.325-7.776,3.436-15.328,5.729-22.845c1.922-6.31,3.855-12.604,5.91-18.866
			c0.838-2.535,1.387-5.095,1.473-7.693C509.909,716.805,510.599,714.141,510.255,711.769z"/>
		<g>
			<path fill="#4C4D45" d="M356.843,633.818c-0.345,4.64-0.686,8.386-0.884,12.137c-0.197,3.778-0.29,7.563-0.348,11.348
				c-0.063,3.725-1.955,7.398-0.361,11.276c3.152,1.371,6.365,1.672,9.742,1.345c4.32-0.424,8.506,0.17,12.437,2.169
				c2.111,1.074,3.185,2.742,3.328,5.078c0.111,1.839-1.094,3.412-2.859,3.317c-2.121-0.102-4.249-0.4-6.354-0.749
				c-7.549-1.245-15.084-1.73-22.625,0.111c-3.171,0.769-6.09,0.324-8.696-1.828c-1.552-1.294-2.551-2.824-2.671-4.825
				c-0.156-2.598-0.354-5.211-0.264-7.806c0.188-5.436,0.807-10.86,0.796-16.29c-0.023-9.541,1.022-18.946,2.804-28.309
				c0.661-3.487,0.972-7.052,1.299-10.599c0.863-9.208,1.562-18.444,2.517-27.648c0.32-3.05,1.005-6.151,4.154-8.133
				c3.818,0.446,7.819,0.38,11.577,2.348c1.56,0.811,3.726,0.925,5.525,0.694c4.391-0.569,8.489,0.7,12.661,1.523
				c1.121,0.221,2.207,0.868,3.184,1.511c1.703,1.122,2.58,2.767,2.364,4.847c-0.204,1.994-1.921,3.945-4.196,4.292
				c-1.842,0.283-3.805,0.275-5.642-0.019c-4.779-0.754-9.42,0.004-14.366,0.682c-3.301,11.439-1.644,23.138-3.247,34.661
				c3.404,2.14,7.031,1.999,10.465,2.519c2.343,0.358,4.729,0.446,7.072,0.781c0.919,0.125,2.052,0.354,2.608,0.972
				c0.707,0.771,1.407,2.086,1.221,2.979c-0.187,0.858-1.644,2.212-2.303,2.094C369.648,633.143,363.563,635.581,356.843,633.818z"
				/>
			<path fill="#4C4D45" d="M306.48,573.485c0.26,1.888,0.731,3.471,0.629,5.01c-0.172,2.604-0.842,5.164-1.069,7.771
				c-0.478,5.438-0.795,10.888-1.19,16.323c-0.361,4.98-0.76,9.954-1.105,14.936c-0.391,5.682-0.707,11.374-1.108,17.063
				c-0.362,5.205-0.795,10.411-1.187,15.618c-0.178,2.364-0.471,4.729-0.438,7.096c0.067,4.525,0.093,8.994-0.984,13.464
				c-0.883,3.687,0.425,5.521,4.214,5.743c4.243,0.246,8.52-0.027,12.782-0.139c2.852-0.074,5.694-0.369,8.541-0.33
				c1.108,0.018,2.425,0.414,3.252,1.104c1.192,0.992,3.042,1.851,2.649,3.87c-0.373,1.925-2.211,2.291-3.731,2.894
				c-0.65,0.253-1.357,0.45-2.06,0.51c-4.954,0.417-9.922,0.688-14.867,1.201c-7.46,0.771-14.626-1.277-21.912-2.158
				c-2.271-0.271-3.854-1.764-4.85-3.804c-1.386-2.844-2.021-5.768-1.4-8.971c2.16-11.198,1.672-22.738,4.321-33.895
				c0.7-2.965,0.497-6.146,0.757-9.222c0.448-5.445,0.924-10.884,1.406-16.316c0.147-1.657,0.555-3.315,0.504-4.958
				c-0.242-7.958,1.613-15.571,3.562-23.177C295.24,575.137,297.076,573.713,306.48,573.485z"/>
			<path fill="#4C4D45" d="M408.235,595.906c-3.82,0.107-6.904,0.376-9.97,0.243c-3.893-0.172-5.688-2.313-5.389-6.03
				c0.055-0.689,0.217-1.479,0.623-2.005c2.393-3.111,5.285-5.854,9.455-5.43c4.584,0.476,8.984-0.088,13.471-0.704
				c2.313-0.318,4.752-0.135,7.08,0.201c3.297,0.46,6.562,1.197,9.801,1.962c3.281,0.768,4.98,2.587,5.058,5.122
				c0.073,2.662-1.988,4.597-5.718,5.172c-1.872,0.284-3.791,0.267-5.674,0.5c-1.862,0.237-3.711,0.625-5.963,1.009
				c-0.393,2.223-0.801,4.282-1.106,6.349c-1.234,8.273-1.072,16.602-1.209,24.923c-0.021,1.428,0.084,2.884-0.142,4.277
				c-1.858,11.592-1.231,23.252-1.141,34.9c0.045,5.221-0.115,10.455-0.379,15.669c-0.097,1.871-0.607,3.77-1.228,5.547
				c-0.633,1.804-2.918,2.979-4.58,2.703c-1.715-0.296-3.403-2.051-3.502-4.018c-0.149-3.07-0.489-6.217-0.032-9.223
				c0.952-6.236-0.728-12.307-0.58-18.492c0.35-14.746-0.144-29.496,1.368-44.216C409.081,608.505,408.974,602.556,408.235,595.906z
				"/>
			<path fill="#4C4D45" d="M501.645,608.369c-3.173-5.372-3.173-5.364-9.369-6.492c-1.394-0.251-2.756-0.586-4.259-0.907
				c-3.233,1.784-4.012,4.686-3.118,7.893c1.325,4.782,2.764,9.588,4.696,14.146c2.795,6.575,5.455,13.144,7.248,20.09
				c1.297,5.042,3.121,9.949,4.58,14.952c1.666,5.688,0.312,16.342-2.592,21.414c-3.562,6.237-12.277,10.501-19.359,9.418
				c-2.819-0.435-5.614-1.346-8.432-1.383c-5.275-0.07-9.873-7.963-9.555-12.54c0.207-3.068,3.108-5.286,6.012-4.313
				c1.488,0.504,2.795,1.659,4.094,2.638c2.455,1.843,4.769,3.887,7.293,5.62c2.166,1.488,4.771,1.326,6.752-0.111
				c3.496-2.533,6.539-5.605,6.674-10.383c0.056-1.892,0.328-3.938-0.235-5.675c-2.625-8.079-3.775-16.538-7.984-24.247
				c-3.828-7.02-6.617-14.75-8.807-22.466c-1.994-7.02-0.967-14.13,3.539-20.332c1.924-2.646,4.637-4.009,7.662-4.895
				c0.455-0.133,0.993-0.379,1.389-0.254c5.768,1.831,12.211,2.534,15.572,8.606c0.651,1.178,0.959,2.715,0.899,4.058
				C504.271,605.019,504.245,607.069,501.645,608.369z"/>
			<path fill="#4C4D45" d="M470.124,594.029c-1.104,7.473-6.598,13.602-13.092,15.104c-1.156,0.271-2.521,0.61-3.103-0.73
				c-0.299-0.688-0.006-1.832,0.379-2.577c1.097-2.099,2.461-4.057,3.564-6.15c1.426-2.718,2.691-5.517,4.041-8.273
				c0.416-0.853,0.801-1.726,1.32-2.511c0.825-1.256,1.996-2.01,3.573-1.851c1.479,0.139,2.978,1.627,3.197,3.358
				C470.192,591.797,470.108,593.232,470.124,594.029z"/>
		</g>
		<g>
			<path fill="#4C4D45" d="M520.595,796.324c-0.858-1.313-2.137-2.434-2.354-3.728c-0.443-2.721-0.664-5.563-0.388-8.302
				c1.632-16.148,3.369-32.285,6.304-48.271c1.104-6.062,3.489-11.653,6.039-17.164c0.94-2.029,2.489-3.817,3.961-5.548
				c1.233-1.45,2.983-2.026,4.813-1.229c1.74,0.771,2.66,2.306,2.81,4.212c0.063,0.745,0.034,1.534-0.129,2.259
				c-0.326,1.485-0.562,3.045-1.207,4.391c-4.041,8.362-5.197,17.406-6.734,26.42c-2.184,12.738-4.873,25.397-7.354,38.087
				C525.665,791.011,524.425,794.226,520.595,796.324z"/>
			<path fill="#4C4D45" d="M512.681,813.414c0.191-0.609,0.392-1.605,0.795-2.504c0.906-2.005,2.576-3.051,4.742-3.007
				c1.873,0.034,3.367,1.057,4.088,2.786c0.562,1.359,0.949,2.849,1.104,4.313c0.377,3.611-1.633,6.105-4.826,6.223
				c-3.67,0.134-6.209-2.35-6.096-5.963C512.509,814.766,512.589,814.269,512.681,813.414z"/>
		</g>
	</g>
	<g>
		<g>
			<path fill="#F8CF13" d="M152.609,470.292c-32.982-16.533-75.178-3.458-110.646-11.858c-6.112-1.443-8.163,7.001-2.536,9.211
				c16.091,6.307,32.228,7.401,49.384,7.592c20.715,0.233,41.362,1.149,62.048,1.516
				C154.203,476.814,155.74,471.859,152.609,470.292z"/>
			<path fill="#F8CF13" d="M138.05,516.386c-19.966,2.393-40.534,4.036-60.017,9.313c-4.514,1.223-3.517,7.978,1.092,8.048
				c20.611,0.313,41.615-3.468,60.448-11.741C142.258,520.828,140.975,516.034,138.05,516.386z"/>
			<path fill="#F8CF13" d="M59.407,526.826c-2.624-0.912-5.845-0.031-8.52,0.397c-3.331,0.529-6.829,0.479-10.193,0.662
				c-5.571,0.312-5.575,8.35,0,8.647c6.382,0.351,17.944,1.426,20.756-6.108C62.035,528.86,60.807,527.313,59.407,526.826z"/>
			<path fill="#F8CF13" d="M143.172,546.142c-27.559,2.75-50.069,17.605-75.453,27.426c-5.133,1.989-28.834,6.256-24.854,15.821
				c1.072,2.584,5.089,3.229,5.904,0c-0.823,3.25,6.041-0.123,10.162-1.137c7.813-1.916,15.418-4.863,22.871-7.84
				c20.993-8.389,40.938-19.208,62.438-26.402C148.309,552.646,147.891,545.665,143.172,546.142z"/>
			<path fill="#F8CF13" d="M134.686,611.283c-7.877,1.307-15.078,4.465-21.502,9.186c-7.111,5.224-15.239,10.32-21.268,16.769
				c-2.672,2.856,0.058,6.629,3.551,6.098c15.829-2.414,28.28-18.645,41.545-26.535C140.121,614.949,137.93,610.744,134.686,611.283
				z"/>
			<path fill="#F8CF13" d="M154.027,667.215c-15.668,6.912-29.203,19.402-42.035,30.527c-8.789,7.619-15.924,13.914-21.729,23.365
				c-1.215,0.639-2.162,1.793-2.113,3.25c0.055,1.721,0.105,3.301,1.574,4.446c1.218,0.943,2.908,1.867,4.52,1.193
				c2.712-1.129,4.339-2.34,6.143-4.771c4.617-6.225,11.251-10.688,17.199-15.608c13.89-11.496,29.599-22.388,41.136-36.326
				C161.609,669.811,158.082,665.426,154.027,667.215z"/>
			<path fill="#F8CF13" d="M185.477,711.883c-9.595,13.494-15.908,27.898-21.558,43.394c-5.085,13.938-12.089,30.825-11.094,45.94
				c0.444,6.752,8.817,7.402,11.235,1.519c11.609-28.228,18.529-58.847,29.484-87.451
				C195.455,710.293,188.172,708.098,185.477,711.883z"/>
			<path fill="#F8CF13" d="M121.096,413.361c-18.273-4.748-32.638-18.518-52.221-19.284c-6.35-0.247-6.287,9.48,0,9.819
				c18.264,0.976,32.818,14.737,51.238,16.719C124.329,421.066,125.04,414.385,121.096,413.361z"/>
			<path fill="#F8CF13" d="M138.352,370.503c-12.254-9.836-27.342-15.947-40.82-23.967c-12.91-7.681-22.939-17.061-37.505-21.803
				c-5.261-1.714-8.515,5.114-5.126,8.807c3.141,3.415,7.331,5.474,11.363,7.626c7.331,3.92,13.609,9.281,20.424,14.038
				c13.813,9.642,30.961,19.253,47.723,22.073C137.925,377.868,141.871,373.328,138.352,370.503z"/>
		</g>
		<g>
			<path fill="#F8CF13" d="M615.39,470.292c32.984-16.533,75.179-3.458,110.652-11.858c6.104-1.443,8.16,7.001,2.529,9.211
				c-16.086,6.307-32.224,7.401-49.379,7.592c-20.72,0.233-41.365,1.149-62.052,1.516
				C613.802,476.814,612.263,471.859,615.39,470.292z"/>
			<path fill="#F8CF13" d="M629.952,516.386c19.967,2.393,40.533,4.036,60.014,9.313c4.519,1.223,3.521,7.978-1.088,8.048
				c-20.613,0.313-41.615-3.468-60.445-11.741C625.743,520.828,627.026,516.034,629.952,516.386z"/>
			<path fill="#F8CF13" d="M708.595,526.826c2.623-0.912,5.847-0.031,8.519,0.397c3.334,0.529,6.832,0.479,10.192,0.662
				c5.576,0.312,5.576,8.35,0,8.647c-6.379,0.351-17.94,1.426-20.756-6.108C705.968,528.86,707.194,527.313,708.595,526.826z"/>
			<path fill="#F8CF13" d="M624.829,546.142c27.561,2.75,50.07,17.605,75.453,27.426c5.135,1.989,28.836,6.256,24.854,15.821
				c-1.076,2.584-5.088,3.229-5.903,0c0.825,3.25-6.037-0.123-10.16-1.137c-7.814-1.916-15.42-4.863-22.875-7.84
				c-20.99-8.389-40.937-19.208-62.433-26.402C619.694,552.646,620.112,545.665,624.829,546.142z"/>
			<path fill="#F8CF13" d="M633.317,611.283c7.875,1.307,15.075,4.465,21.5,9.186c7.108,5.224,15.239,10.32,21.266,16.769
				c2.674,2.856-0.057,6.629-3.549,6.098c-15.828-2.414-28.277-18.645-41.543-26.535
				C627.88,614.949,630.073,610.744,633.317,611.283z"/>
			<path fill="#F8CF13" d="M613.974,667.215c15.666,6.912,29.203,19.402,42.035,30.527c8.793,7.619,15.922,13.914,21.726,23.365
				c1.217,0.639,2.168,1.793,2.118,3.25c-0.057,1.721-0.106,3.301-1.575,4.446c-1.218,0.943-2.91,1.867-4.517,1.193
				c-2.719-1.129-4.348-2.34-6.146-4.771c-4.615-6.225-11.25-10.688-17.193-15.608c-13.893-11.496-29.604-22.388-41.139-36.326
				C606.39,669.811,609.921,665.426,613.974,667.215z"/>
			<path fill="#F8CF13" d="M582.526,711.883c9.592,13.494,15.903,27.898,21.559,43.394c5.08,13.938,12.084,30.825,11.096,45.94
				c-0.448,6.752-8.821,7.402-11.233,1.519c-11.609-28.228-18.537-58.847-29.492-87.451
				C572.544,710.293,579.829,708.098,582.526,711.883z"/>
			<path fill="#F8CF13" d="M646.907,413.361c18.272-4.748,32.635-18.518,52.219-19.284c6.35-0.247,6.289,9.48,0,9.819
				c-18.26,0.976-32.82,14.737-51.24,16.719C643.671,421.066,642.964,414.385,646.907,413.361z"/>
			<path fill="#F8CF13" d="M629.646,370.503c12.255-9.836,27.343-15.947,40.822-23.967c12.91-7.681,22.941-17.061,37.502-21.803
				c5.267-1.714,8.517,5.114,5.127,8.807c-3.141,3.415-7.332,5.474-11.358,7.626c-7.33,3.92-13.609,9.281-20.429,14.038
				c-13.811,9.642-30.959,19.253-47.721,22.073C630.075,377.868,626.13,373.328,629.646,370.503z"/>
		</g>
	</g>
</g>
<g>
	<path fill="#4C4D45" d="M147.682,885.209c-1.334-5.119-4.934-7.68-10.8-7.68c-11.094,0.375-17.681,9.573-19.761,27.6
		c-0.054,0.588-0.079,1.174-0.079,1.762v0.16c0,13.279,4.826,20.107,14.479,20.479c10.4-0.691,15.84-7.039,16.32-19.039
		c0.532-1.652,1.946-2.642,4.24-2.961h0.399c1.973,0.319,3.173,1.36,3.601,3.121c-0.694,16.959-8.854,25.893-24.48,26.799
		c-15.308-0.32-22.96-9.974-22.96-28.959v-0.08c0-0.642,0.026-1.308,0.08-2c2.666-22.986,12.053-34.642,28.16-34.961h1.359
		c4.747,0,7.893,0.772,9.44,2.319c1.12-1.438,2.426-2.159,3.92-2.159c1.652,0,3.04,0.748,4.16,2.239v17.279
		c-1.28,1.174-2.668,1.762-4.16,1.762c-1.388,0-2.693-0.561-3.92-1.682v-4H147.682z"/>
	<path fill="#4C4D45" d="M192.962,926.33c1.119-0.426,2.319-1.172,3.6-2.24c3.093,1.014,4.692,3.279,4.8,6.801
		c-2.934,2.398-6.188,3.705-9.76,3.92c-2.668-0.428-4.268-1.254-4.8-2.479c-0.854,0.693-2.479,1.414-4.88,2.16
		c-0.854,0.213-1.654,0.426-2.4,0.639l-1.04,0.16c-0.907,0.053-1.813,0.08-2.72,0.08c-8.748-0.318-13.414-3.945-14-10.879
		c-0.054-0.373-0.08-0.773-0.08-1.201c0-6.025,3.652-9.039,10.96-9.039h1.52c1.013,0.053,1.893,0.08,2.641,0.08
		c4.853,0,8.266-0.986,10.239-2.961c0.533-3.146,0.801-6.08,0.801-8.799c0-2.613-0.641-4.813-1.92-6.601
		c-1.28-1.787-3.228-2.682-5.841-2.682c-0.96,0-1.974,0.135-3.04,0.4c-4.054,1.174-6.079,5.094-6.079,11.76v1.041
		c-1.44,1.438-2.908,2.16-4.4,2.16c-1.44,0-2.854-0.693-4.24-2.08c0.586-12.642,5.253-19.732,14-21.281
		c1.652-0.211,3.227-0.318,4.72-0.318c4.641,0.269,8.28,1.986,10.921,5.158c2.64,3.174,3.96,7.562,3.96,13.16
		c0,3.414-0.428,7.229-1.28,11.441C193.574,920.01,193.014,923.877,192.962,926.33z M185.281,920.891
		c-2.24,0.693-4.134,1.039-5.68,1.039h-0.8c-0.854,0-1.788-0.024-2.801-0.08c-0.747-0.053-1.439-0.08-2.079-0.08
		c-2.721,0-4.08,0.533-4.08,1.601c0,0.16,0.026,0.348,0.08,0.561c0.532,2.508,2.452,3.787,5.76,3.84c0.64,0,1.306-0.024,2-0.079
		C182.107,926.678,184.642,924.41,185.281,920.891z"/>
	<path fill="#4C4D45" d="M213.841,905.93c-0.32,1.439-0.479,3.439-0.479,6c0,1.439,0.08,2.935,0.239,4.48
		c1.013,7.574,4.986,11.358,11.92,11.358c7.36-0.852,11.146-6,11.36-15.438c1.44-1.279,2.8-1.92,4.08-1.92c1.066,0,2.4,0.588,4,1.76
		c-0.374,14.773-6.987,22.506-19.84,23.199c-9.601,0-15.84-4.291-18.72-12.879c-0.908-3.201-1.36-6.453-1.36-9.761
		c0-5.12,1.146-10.213,3.44-15.28c4.319-8.105,10.906-12.16,19.76-12.16c8.053,0.641,13.04,4.055,14.96,10.24
		c0.372,1.334,0.56,2.534,0.56,3.6c0,4.535-2.96,6.801-8.88,6.801H213.841L213.841,905.93z M217.201,898.25h17.359
		c0.747-0.105,1.12-0.24,1.12-0.4c0-0.426-0.214-1.012-0.64-1.76c-1.12-2.133-3.6-3.199-7.44-3.199h-0.8
		C222.427,893.051,219.228,894.838,217.201,898.25z"/>
	<path fill="#4C4D45" d="M273.281,896.17c3.199,0.641,6.052,1.92,8.56,3.84c4.053,3.467,6.08,8.24,6.08,14.32
		c-0.534,13.814-6.72,20.879-18.56,21.199c-12.48,0-19.094-8.986-19.841-26.959h1.36c0.48-0.427,1.412-0.642,2.8-0.642
		c1.333,0,2.8,0.509,4.4,1.521c0.853,12.106,4.612,18.16,11.28,18.16c6.666-0.48,10.159-4.933,10.479-13.359
		c0-3.52-1.2-6.16-3.6-7.92c-1.974-1.652-5.067-2.48-9.28-2.48c-0.854,0-1.628,0.027-2.32,0.08c-0.854,0.056-1.627,0.08-2.319,0.08
		c-5.174,0-8.428-1.438-9.761-4.319c-0.693-1.492-1.04-2.933-1.04-4.32c0-1.813,0.48-3.521,1.44-5.119
		c1.706-3.412,4.826-5.199,9.36-5.359c2.56,0,4.052,0.269,4.479,0.8c1.333-1.172,2.641-1.761,3.92-1.761
		c1.493,0,2.88,0.613,4.16,1.841v9.2C274.348,895.504,273.813,895.904,273.281,896.17z M268.241,895.77
		c-0.641-0.479-1.254-1.118-1.84-1.92c-1.12-0.959-2.348-1.438-3.681-1.438c-0.16,0-0.399,0.053-0.72,0.16
		c-1.334,0.213-2.027,0.825-2.08,1.84c0.106,1.065,1.146,1.6,3.12,1.6c0.906,0,1.973-0.053,3.2-0.16
		C266.934,895.797,267.601,895.77,268.241,895.77z"/>
	<path fill="#4C4D45" d="M325.841,926.33c1.119-0.426,2.319-1.172,3.601-2.24c3.093,1.014,4.691,3.279,4.8,6.801
		c-2.935,2.398-6.188,3.705-9.76,3.92c-2.669-0.428-4.269-1.254-4.801-2.479c-0.854,0.693-2.479,1.414-4.88,2.16
		c-0.854,0.213-1.653,0.426-2.399,0.639l-1.04,0.16c-0.907,0.053-1.813,0.08-2.721,0.08c-8.748-0.318-13.414-3.945-14-10.879
		c-0.054-0.373-0.08-0.773-0.08-1.201c0-6.025,3.652-9.039,10.96-9.039h1.52c1.013,0.053,1.893,0.08,2.641,0.08
		c4.854,0,8.267-0.986,10.239-2.961c0.533-3.146,0.801-6.08,0.801-8.799c0-2.613-0.641-4.813-1.92-6.601
		c-1.28-1.787-3.228-2.682-5.841-2.682c-0.96,0-1.974,0.135-3.04,0.4c-4.054,1.174-6.079,5.094-6.079,11.76v1.041
		c-1.44,1.438-2.908,2.16-4.4,2.16c-1.44,0-2.854-0.693-4.24-2.08c0.586-12.642,5.253-19.732,14-21.281
		c1.651-0.211,3.227-0.318,4.72-0.318c4.641,0.269,8.28,1.986,10.921,5.158c2.641,3.174,3.96,7.562,3.96,13.16
		c0,3.414-0.428,7.229-1.279,11.441C326.453,920.01,325.893,923.877,325.841,926.33z M318.16,920.891
		c-2.24,0.693-4.134,1.039-5.68,1.039h-0.801c-0.854,0-1.788-0.024-2.801-0.08c-0.747-0.053-1.438-0.08-2.079-0.08
		c-2.721,0-4.08,0.533-4.08,1.601c0,0.16,0.026,0.348,0.08,0.561c0.532,2.508,2.452,3.787,5.76,3.84c0.641,0,1.307-0.024,2-0.079
		C314.986,926.678,317.521,924.41,318.16,920.891z"/>
	<path fill="#4C4D45" d="M351.52,885.609c2.293-0.586,4.214-0.879,5.762-0.879c0.691,0,1.466,0.026,2.318,0.079
		c2.722,0.269,5.08,1.318,7.08,3.16c2,1.84,3.106,3.398,3.32,4.681v0.319c0,1.119-0.508,2.027-1.521,2.72
		c-0.854,0.641-1.732,1.041-2.64,1.2h-0.32c-1.119,0-1.974-0.508-2.56-1.521c-1.067-1.439-2.348-2.346-3.84-2.719
		c-0.534-0.214-1.015-0.32-1.44-0.32c-0.96,0-1.92,0.268-2.88,0.799c-1.334,0.588-2.374,2.508-3.12,5.762v27.841h12.88
		c1.174,1.334,1.762,2.639,1.762,3.92c0,1.438-0.642,2.745-1.921,3.92h-24.721c-1.174-1.175-1.76-2.48-1.76-3.92
		c0-1.281,0.56-2.586,1.68-3.92h4.08V893.53h-4.16c-1.066-1.332-1.6-2.666-1.6-4c0-1.228,0.532-2.531,1.6-3.92L351.52,885.609
		L351.52,885.609z"/>
	<path fill="#4C4D45" d="M438.479,885.209c-1.334-5.119-4.934-7.68-10.801-7.68c-11.094,0.375-17.68,9.573-19.76,27.6
		c-0.054,0.588-0.08,1.174-0.08,1.762v0.16c0,13.279,4.826,20.107,14.48,20.479c10.398-0.691,15.84-7.039,16.319-19.039
		c0.532-1.652,1.945-2.642,4.239-2.961h0.4c1.973,0.319,3.173,1.36,3.6,3.121c-0.693,16.959-8.854,25.893-24.479,26.799
		c-15.309-0.32-22.961-9.974-22.961-28.959v-0.08c0-0.642,0.026-1.308,0.079-2c2.667-22.986,12.054-34.642,28.16-34.961h1.36
		c4.746,0,7.893,0.772,9.439,2.319c1.12-1.438,2.427-2.159,3.921-2.159c1.651,0,3.04,0.748,4.159,2.239v17.279
		c-1.279,1.174-2.668,1.762-4.159,1.762c-1.389,0-2.694-0.561-3.921-1.682v-4H438.479z"/>
	<path fill="#4C4D45" d="M470.078,926.73h9.28c1.172,1.334,1.76,2.612,1.76,3.84c0,1.438-0.64,2.772-1.92,4h-26.4
		c-1.174-1.281-1.76-2.613-1.76-4c0-1.228,0.56-2.506,1.68-3.84h9.36v-33.281h-5.76c-1.067-1.332-1.602-2.666-1.602-4
		c0-1.228,0.562-2.506,1.682-3.84h13.68V926.73L470.078,926.73z M470.718,872.01c0,1.547-0.533,2.867-1.6,3.961
		c-1.067,1.095-2.4,1.64-4,1.64c-1.601,0-2.947-0.545-4.04-1.64c-1.094-1.094-1.641-2.414-1.641-3.961s0.547-2.865,1.641-3.959
		c1.093-1.094,2.439-1.641,4.04-1.641c1.6,0,2.933,0.547,4,1.641C470.185,869.145,470.718,870.463,470.718,872.01z"/>
	<path fill="#4C4D45" d="M498.878,885.289c0.853-1.012,4.188-1.521,10-1.521c11.786,0,18.213,8.107,19.28,24.32
		c-0.107,9.654-2,16.349-5.68,20.08c-3.682,3.787-7.814,5.68-12.4,5.68c-0.054,0-0.08-0.024-0.08-0.08
		c-4.693,0-8.399-0.561-11.12-1.68v9.359h11.521c1.065,1.334,1.6,2.612,1.6,3.84c0,1.547-0.64,2.881-1.92,4h-23.521
		c-1.174-1.174-1.761-2.506-1.761-4c0-1.279,0.587-2.56,1.761-3.84h4.239V892.01h-4.398c-1.067-1.332-1.602-2.641-1.602-3.92
		s0.533-2.613,1.602-4h12.479V885.289L498.878,885.289z M498.878,900.09v17.279c1.493,5.813,4.772,8.721,9.84,8.721
		c7.093,0,10.772-5.973,11.04-17.92c-0.479-11.359-4.159-17.041-11.04-17.041C503.65,891.129,500.371,894.117,498.878,900.09z"/>
	<path fill="#4C4D45" d="M560.878,899.051c-0.319-3.574-1.894-5.387-4.72-5.44c-3.254,0.319-5.867,1.813-7.84,4.479v28.961h5.439
		c1.279,1.066,1.92,2.347,1.92,3.84c0,1.439-0.613,2.746-1.84,3.92h-17.2c-1.28-1.174-1.92-2.479-1.92-3.92
		c0-1.334,0.612-2.612,1.84-3.84h3.681v-48.24h-3.761c-1.228-1.334-1.84-2.692-1.84-4.079c0-1.388,0.612-2.693,1.84-3.921h11.841
		v16.24c1.065-1.014,3.651-1.521,7.76-1.521h0.721c8,0,12.132,4.375,12.399,13.121v27.76c0,0.32,0.133,0.479,0.399,0.479h0.399
		c0.533,0,1.547-0.561,3.04-1.682c3.146,0.588,4.721,2.4,4.721,5.441v1.118c-2.08,1.654-4.641,2.748-7.681,3.281h-1.601
		c-2.348,0-4.159-0.533-5.439-1.602c-1.439-1.439-2.16-3.465-2.16-6.08L560.878,899.051L560.878,899.051z"/>
	<path fill="#4C4D45" d="M591.118,905.93c-0.32,1.439-0.48,3.439-0.48,6c0,1.439,0.08,2.935,0.24,4.48
		c1.013,7.574,4.986,11.358,11.92,11.358c7.36-0.852,11.146-6,11.36-15.438c1.438-1.279,2.8-1.92,4.08-1.92
		c1.065,0,2.398,0.588,4,1.76c-0.374,14.773-6.987,22.506-19.84,23.199c-9.602,0-15.842-4.291-18.722-12.879
		c-0.907-3.201-1.358-6.453-1.358-9.761c0-5.12,1.146-10.213,3.438-15.28c4.32-8.105,10.906-12.16,19.761-12.16
		c8.053,0.641,13.039,4.055,14.96,10.24c0.372,1.334,0.561,2.534,0.561,3.6c0,4.535-2.96,6.801-8.88,6.801H591.118L591.118,905.93z
		 M594.479,898.25h17.359c0.746-0.105,1.12-0.24,1.12-0.4c0-0.426-0.214-1.012-0.64-1.76c-1.12-2.133-3.602-3.199-7.44-3.199h-0.8
		C599.704,893.051,596.504,894.838,594.479,898.25z"/>
	<path fill="#4C4D45" d="M640.878,885.609c2.293-0.586,4.213-0.879,5.76-0.879c0.692,0,1.468,0.026,2.32,0.079
		c2.72,0.269,5.08,1.318,7.08,3.16c2,1.84,3.106,3.398,3.32,4.681v0.319c0,1.119-0.509,2.027-1.521,2.72
		c-0.854,0.641-1.732,1.041-2.64,1.2h-0.32c-1.12,0-1.974-0.508-2.56-1.521c-1.067-1.439-2.349-2.346-3.841-2.719
		c-0.533-0.214-1.015-0.32-1.439-0.32c-0.96,0-1.92,0.268-2.88,0.799c-1.334,0.588-2.374,2.508-3.12,5.762v27.841h12.88
		c1.173,1.334,1.76,2.639,1.76,3.92c0,1.438-0.64,2.745-1.92,3.92h-24.72c-1.174-1.175-1.76-2.48-1.76-3.92
		c0-1.281,0.56-2.586,1.68-3.92h4.08V893.53h-4.16c-1.066-1.332-1.6-2.666-1.6-4c0-1.228,0.531-2.531,1.6-3.92L640.878,885.609
		L640.878,885.609z"/>
</g>
</svg>
